<svg xmlns:xlink="http://www.w3.org/1999/xlink" xmlns="http://www.w3.org/2000/svg" aria-hidden="true" class="android-badge__icon icon--quick-share-icon" width="56"  height="56" ><defs><symbol fill="none" viewBox="0 0 56 56" id="quick-share-icon" xmlns="http://www.w3.org/2000/svg">
      <rect width="56" height="56" fill="#fff" rx="28"></rect>
      <path fill="#4285F4" d="M43.93 27.913a1.567 1.567 0 0 1-1.557-1.4C41.615 19.163 35.435 13.62 28 13.62c-6.023 0-11.314 3.666-13.452 9.112h9.509l-.77-.768a1.384 1.384 0 0 1 0-1.96 1.394 1.394 0 0 1 1.968 0l3.32 3.302c.542.543.542 1.42 0 1.96l-3.317 3.305a1.4 1.4 0 0 1-1.968 0 1.384 1.384 0 0 1 0-1.96l.764-.762H12.536a1.751 1.751 0 0 1-1.301-.63 1.739 1.739 0 0 1-.31-1.414C12.864 15.972 19.884 10.5 28 10.5c9.047 0 16.567 6.746 17.491 15.692a1.56 1.56 0 0 1-1.4 1.709.984.984 0 0 1-.16.012Z"></path>
      <path fill="#4285F4" d="M11.909 28.079a1.565 1.565 0 0 1 1.718 1.394c.026.262.06.522.102.779 1.108 7.029 7.113 12.127 14.274 12.127 6.026 0 11.316-3.666 13.454-9.117h-9.52l.776.773c.543.542.543 1.42 0 1.96a1.4 1.4 0 0 1-1.969 0l-3.319-3.305a1.384 1.384 0 0 1 0-1.96l3.32-3.302a1.394 1.394 0 0 1 1.968 0c.543.54.543 1.418 0 1.96l-.758.756h11.512c.481 0 1.003.256 1.3.63.298.376.424.945.31 1.411C43.143 40.025 36.12 45.5 28 45.5c-8.715 0-16.018-6.21-17.369-14.764-.05-.315-.09-.63-.122-.948a1.561 1.561 0 0 1 1.4-1.71Z"></path>
    </symbol></defs>
    <use href="#quick-share-icon"></use>
  </svg>