<svg xmlns:xlink="http://www.w3.org/1999/xlink" xmlns="http://www.w3.org/2000/svg" class="icon--svg social-network__icon" aria-hidden="true" width="24"  height="24" ><defs><symbol id="social-facebook" viewBox="0 0 20 20">
      <g fill="none" fill-rule="evenodd">
        <path d="M-2-2h24v24H-2z"></path>
        <path d="M20 10.1c0-5.5-4.5-10-10-10S0 4.5 0 10.1c0 5 3.7 9.1 8.4 9.9v-7H5.9v-2.9h2.5V7.9C8.4 5.4 9.9 4 12.2 4c1.1 0 2.2.2 2.2.2v2.5h-1.3c-1.2 0-1.6.8-1.6 1.6v1.9h2.8l-.4 2.8h-2.3v7c4.7-.8 8.4-4.9 8.4-9.9z" fill="currentColor"></path>
      </g>
    </symbol></defs>
          <use href="#social-facebook"></use>
        </svg>