<svg style="position:absolute;width:0;height:0;visibility:hidden;" role="presentation" focusable="false" xmlns="http://www.w3.org/2000/svg" xmlns:xlink="http://www.w3.org/1999/xlink" width="24"  height="24" >
  <defs>
    <style>
    .sprite-symbol-usage {display: none;}
    .sprite-symbol-usage:target {display: inline;}
    </style>
        <symbol id="ico-globe" viewBox="0 0 24 24">
      <g fill="none" fill-rule="evenodd">
        <path d="M0 0h24v24H0z"></path>
        <path d="M11.99 2C6.47 2 2 6.48 2 12s4.47 10 9.99 10C17.52 22 22 17.52 22 12S17.52 2 11.99 2zm6.93 6h-2.95a15.65 15.65 0 0 0-1.38-3.56A8.03 8.03 0 0 1 18.92 8zM12 4.04c.83 1.2 1.48 2.53 1.91 3.96h-3.82c.43-1.43 1.08-2.76 1.91-3.96zM4.26 14C4.1 13.36 4 12.69 4 12s.1-1.36.26-2h3.38c-.08.66-.14 1.32-.14 2s.06 1.34.14 2zm.82 2h2.95c.32 1.25.78 2.45 1.38 3.56A7.987 7.987 0 0 1 5.08 16zm2.95-8H5.08a7.987 7.987 0 0 1 4.33-3.56A15.65 15.65 0 0 0 8.03 8zM12 19.96c-.83-1.2-1.48-2.53-1.91-3.96h3.82c-.43 1.43-1.08 2.76-1.91 3.96zM14.34 14H9.66c-.09-.66-.16-1.32-.16-2s.07-1.35.16-2h4.68c.09.65.16 1.32.16 2s-.07 1.34-.16 2zm.25 5.56c.6-1.11 1.06-2.31 1.38-3.56h2.95a8.03 8.03 0 0 1-4.33 3.56zM16.36 14c.08-.66.14-1.32.14-2s-.06-1.34-.14-2h3.38c.16.64.26 1.31.26 2s-.1 1.36-.26 2z" fill="currentColor"></path>
      </g>
    </symbol>
        <symbol id="social-instagram" viewBox="0 0 48 48">
      <path d="M23.9,7.1c5.5,0,6.1,0,8.3,0.1c2,0.1,3.1,0.4,3.8,0.7c0.9,0.3,1.7,0.9,2.4,1.5c0.7,0.7,1.2,1.5,1.5,2.4 c0.3,0.7,0.6,1.8,0.7,3.8c0.1,2.2,0.1,2.8,0.1,8.3s0,6.1-0.1,8.3c-0.1,2-0.4,3.1-0.7,3.8c-0.7,1.8-2.1,3.2-3.9,3.9 c-0.7,0.3-1.8,0.6-3.8,0.7c-2.2,0.1-2.8,0.1-8.3,0.1s-6.1,0-8.3-0.1c-2-0.1-3.1-0.4-3.8-0.7c-0.9-0.3-1.7-0.9-2.4-1.5 c-0.7-0.7-1.2-1.5-1.5-2.4c-0.3-0.7-0.6-1.8-0.7-3.8c-0.1-2.2-0.1-2.8-0.1-8.3s0-6.1,0.1-8.3c0.1-2,0.4-3.1,0.7-3.8 c0.3-0.9,0.9-1.7,1.5-2.4c0.7-0.7,1.5-1.2,2.4-1.5c0.7-0.3,1.8-0.6,3.8-0.7C17.8,7.1,18.5,7.1,23.9,7.1 M23.9,3.4 c-5.6,0-6.3,0-8.5,0.1c-2.2,0.1-3.7,0.4-5,1C9.1,5,7.9,5.8,6.9,6.8c-1,1-1.9,2.3-2.4,3.6c-0.5,1.3-0.9,2.8-1,5 c-0.1,2.2-0.1,2.9-0.1,8.5s0,6.3,0.1,8.5c0.1,2.2,0.4,3.7,1,5C5,38.7,5.8,40,6.9,41c1,1,2.3,1.9,3.6,2.4c1.3,0.5,2.8,0.9,5,1 c2.2,0.1,2.9,0.1,8.5,0.1s6.3,0,8.5-0.1c2.2-0.1,3.7-0.4,5-1c2.8-1.1,4.9-3.2,6-6c0.5-1.3,0.9-2.8,1-5c0.1-2.2,0.1-2.9,0.1-8.5 s0-6.3-0.1-8.5c-0.1-2.2-0.4-3.7-1-5c-0.5-1.4-1.3-2.6-2.4-3.6c-1-1-2.3-1.9-3.6-2.4c-1.3-0.5-2.8-0.9-5-1 C30.2,3.4,29.5,3.4,23.9,3.4L23.9,3.4L23.9,3.4z"></path>
      <path d="M23.9,13.4c-5.8,0-10.5,4.7-10.5,10.5s4.7,10.5,10.5,10.5s10.5-4.7,10.5-10.5l0,0C34.5,18.1,29.8,13.4,23.9,13.4z M23.9,30.8c-3.8,0-6.8-3.1-6.8-6.8c0-3.8,3.1-6.8,6.8-6.8c3.8,0,6.8,3.1,6.8,6.8C30.8,27.7,27.7,30.8,23.9,30.8z"></path>
      <circle cx="34.9" cy="13" r="2.5"></circle>
    </symbol>
        <symbol id="social-link" fill="none" viewBox="0 0 22 10" fill-rule="evenodd"><path d="M6.208 4h9.584v2H6.208V4z" fill="currentColor"></path><path d="M16.75 0h-3.833v2h3.833c1.588 0 2.875 1.343 2.875 3s-1.287 3-2.875 3h-3.833v2h3.833c2.646 0 4.792-2.239 4.792-5s-2.146-5-4.792-5zM5.25 10h3.833V8H5.25C3.662 8 2.375 6.657 2.375 5S3.662 2 5.25 2h3.833V0H5.25C2.604 0 .458 2.239.458 5s2.146 5 4.792 5z" fill="currentColor"></path></symbol>
        
    <symbol viewBox="0 0 24 24" id="social-twitter" xmlns="http://www.w3.org/2000/svg">
    <g clip-path="url(#clip0_1835_14010)">
<path d="M13.9027 10.6547L21.3482 2H19.5838L13.119 9.51478L7.95547 2H2L9.8082 13.3637L2 22.4395H3.76443L10.5915 14.5036L16.0445 22.4395H22L13.9023 10.6547H13.9027ZM11.4861 13.4638L10.695 12.3322L4.40018 3.32824H7.11025L12.1902 10.5947L12.9813 11.7263L19.5847 21.1717H16.8746L11.4861 13.4642V13.4638Z" fill="currentColor"></path>
</g>
    </symbol>
    
        <symbol id="social-youtube" viewBox="0 0 48 48">
      <path d="M47.48 13.21s-.46-3.3-1.9-4.74c-1.82-1.92-3.86-1.92-4.8-2.04C34.08 5.94 24 6 24 6s-10.04-.06-16.74.42c-.92.12-2.96.12-4.78 2.04C1.04 9.9.56 13.2.56 13.2S.08 17.09 0 20.96v4.05c.08 3.88.56 7.75.56 7.75s.48 3.3 1.92 4.76c1.82 1.9 4.2 1.84 5.28 2.04 3.76.36 15.82.44 16.24.44 0 0 10.1.02 16.8-.46.92-.12 2.96-.12 4.78-2.04 1.44-1.44 1.92-4.74 1.92-4.74s.48-3.88.5-7.75v-4.05c-.04-3.87-.52-7.75-.52-7.75zM19.14 30V15.98L32 23.26 19.14 30z"></path>
      <path fill="none" d="M0 0h47.99v48H0z"></path>
    </symbol>
        <symbol fill="none" viewBox="0 0 24 24" id="checked-rounded-icon" xmlns="http://www.w3.org/2000/svg">
      <circle cx="12" cy="12" r="12" fill="#202124"></circle>
      <path fill="#fff" d="m9.788 16.24-4.001-4 .802-.802 3.199 3.199 6.874-6.874.802.802-7.676 7.676Z"></path>
    </symbol>
        <symbol id="social-linkedin" viewBox="0 0 24 24">
      <g fill="none" fill-rule="evenodd">
      <path d="M0 0h24v24H0z"></path>
      <path d="M20 2H4c-1.1 0-1.99.9-1.99 2L2 20c0 1.1.9 2 2 2h16c1.1 0 2-.9 2-2V4c0-1.1-.9-2-2-2zM8 19H5v-9h3v9zM6.5 8.31c-1 0-1.81-.81-1.81-1.81S5.5 4.69 6.5 4.69s1.81.81 1.81 1.81S7.5 8.31 6.5 8.31zM19 19h-3v-5.3c0-.83-.67-1.5-1.5-1.5s-1.5.67-1.5 1.5V19h-3v-9h3v1.2c.52-.84 1.59-1.4 2.5-1.4 1.93 0 3.5 1.57 3.5 3.5V19z" fill="currentColor"></path>
      </g>
    </symbol>
        <symbol id="social-facebook" viewBox="0 0 20 20">
      <g fill="none" fill-rule="evenodd">
        <path d="M-2-2h24v24H-2z"></path>
        <path d="M20 10.1c0-5.5-4.5-10-10-10S0 4.5 0 10.1c0 5 3.7 9.1 8.4 9.9v-7H5.9v-2.9h2.5V7.9C8.4 5.4 9.9 4 12.2 4c1.1 0 2.2.2 2.2.2v2.5h-1.3c-1.2 0-1.6.8-1.6 1.6v1.9h2.8l-.4 2.8h-2.3v7c4.7-.8 8.4-4.9 8.4-9.9z" fill="currentColor"></path>
      </g>
    </symbol>
        <symbol id="ico-arrow-round" viewBox="0 0 11 7">
      <path d="M9.576 1.333L5.333 5.576 1.091 1.333" stroke="currentColor" stroke-width="2" fill="none" stroke-linecap="round" stroke-linejoin="round"></path>
    </symbol>
        <symbol viewBox="0 0 28 28" id="a14-pause">
      <path d="M9 22.1239V5.82422H10.5096V22.1239H9ZM17 22.1239V5.82422H18.5096V22.1239H17Z"></path>
    </symbol>
        <symbol viewBox="0 0 28 28" id="a14-play">
      <path d="M8.16669 5.8335V22.1668L21 14.0002L8.16669 5.8335Z"></path>
    </symbol>
        <symbol id="ico-hamburger" viewBox="0 0 24 24">
      <g fill="none" fill-rule="evenodd">
        <path d="M0 0h24v24H0z"></path>
        <path d="M4 18h16c.55 0 1-.45 1-1s-.45-1-1-1H4c-.55 0-1 .45-1 1s.45 1 1 1zm0-5h16c.55 0 1-.45 1-1s-.45-1-1-1H4c-.55 0-1 .45-1 1s.45 1 1 1zM3 7c0 .55.45 1 1 1h16c.55 0 1-.45 1-1s-.45-1-1-1H4c-.55 0-1 .45-1 1z" fill="currentColor"></path>
      </g>
    </symbol>
        <symbol id="ico-close" viewBox="0 0 24 24">
      <g fill="none" fill-rule="evenodd">
        <path d="M0 0h24v24H0z"></path>
        <path d="M18.3 5.71a.996.996 0 0 0-1.41 0L12 10.59 7.11 5.7A.996.996 0 1 0 5.7 7.11L10.59 12 5.7 16.89a.996.996 0 1 0 1.41 1.41L12 13.41l4.89 4.89a.996.996 0 1 0 1.41-1.41L13.41 12l4.89-4.89c.38-.38.38-1.02 0-1.4z" fill="currentColor"></path>
      </g>
    </symbol>
        <symbol id="ico-cross" viewBox="0 0 63 63">
      <path d="M63 26.2H36.8V0H26.2v26.2H0v10.6h26.2V63h10.6V36.8H63z"></path>
    </symbol>
        <symbol id="ico-search" viewBox="0 0 24 24">
      <g fill="none" fill-rule="evenodd">
        <path d="M0 0h24v24H0z"></path>
        <path d="M15.5 14h-.79l-.28-.27a6.5 6.5 0 0 0 1.48-5.34c-.47-2.78-2.79-5-5.59-5.34a6.505 6.505 0 0 0-7.27 7.27c.34 2.8 2.56 5.12 5.34 5.59a6.5 6.5 0 0 0 5.34-1.48l.27.28v.79l4.25 4.25c.41.41 1.08.41 1.49 0 .41-.41.41-1.08 0-1.49L15.5 14zm-6 0C7.01 14 5 11.99 5 9.5S7.01 5 9.5 5 14 7.01 14 9.5 11.99 14 9.5 14z" fill="currentColor"></path>
      </g>
    </symbol>
        <symbol viewBox="0 0 29 29" id="ico-exclamation">
      <g transform="translate(1 1)" stroke="currentColor" fill="none" fill-rule="evenodd">
        <path fill="currentColor" d="M12 15h3V6h-3zm0 6h3v-3h-3z"></path>
        <circle stroke="currentColor" stroke-width="2" cx="13.5" cy="13.5" r="13.5"></circle>
      </g>
    </symbol>
        <symbol fill="none" viewBox="0 0 18 20" id="view-three-d-icon" xmlns="http://www.w3.org/2000/svg">
      <path fill="#1C1B1F" d="M8.25 17.57v-7.14L2 6.812v6.966c0 .051.013.1.038.144a.33.33 0 0 0 .116.116L8.25 17.57Zm1.5 0 6.096-3.534a.33.33 0 0 0 .115-.115.285.285 0 0 0 .039-.144V6.812L9.75 10.43v7.138ZM9 9.137l6.175-3.569-6.021-3.482A.288.288 0 0 0 9 2.038a.288.288 0 0 0-.154.049L2.825 5.569 9 9.14Zm-7.596 6.216A1.78 1.78 0 0 1 .5 13.792V6.208a1.77 1.77 0 0 1 .904-1.562L8.096.794a1.782 1.782 0 0 1 1.808 0l6.692 3.852a1.781 1.781 0 0 1 .904 1.562v7.584a1.77 1.77 0 0 1-.904 1.562l-6.692 3.852a1.782 1.782 0 0 1-1.808 0l-6.692-3.852Z"></path>
    </symbol>
        <symbol fill="none" viewBox="0 0 24 24" id="rotate-icon">
      <mask width="24" height="24" x="0" y="0" maskUnits="userSpaceOnUse" style="mask-type:alpha">
        <path fill="currentColor" d="M0 0h24v24H0z"></path>
      </mask>
      <g>
        <path fill="currentColor" d="m8.77 19.365-1.055-1.053 1.943-1.974c-2.037-.27-3.74-.804-5.107-1.6C3.184 13.94 2.5 13.027 2.5 12c0-1.23.918-2.287 2.753-3.172C7.088 7.943 9.337 7.5 12 7.5c2.663 0 4.912.443 6.747 1.328S21.5 10.77 21.5 12c0 .88-.505 1.686-1.514 2.42-1.009.732-2.337 1.286-3.986 1.66v-1.53c1.283-.333 2.27-.746 2.962-1.238C19.654 12.822 20 12.383 20 12c0-.553-.712-1.19-2.137-1.914S14.483 9 12 9c-2.483 0-4.438.362-5.863 1.086C4.712 10.809 4 11.447 4 12c0 .438.49.945 1.467 1.52.979.574 2.283.993 3.914 1.257l-1.666-1.665 1.054-1.054 3.654 3.653-3.654 3.654Z"></path>
      </g>
    </symbol>
        <symbol fill="none" viewBox="0 0 37 37" id="help-icon" xmlns="http://www.w3.org/2000/svg">
        <path fill="#fff" d="M18.652 29.476c.63 0 1.163-.218 1.598-.653.435-.435.652-.967.652-1.597s-.217-1.163-.652-1.598a2.173 2.173 0 0 0-1.598-.652c-.63 0-1.162.217-1.597.652a2.173 2.173 0 0 0-.653 1.598c0 .63.218 1.162.653 1.597.435.435.967.653 1.597.653Zm-1.62-6.93h3.33c0-.99.113-1.77.338-2.34.225-.57.862-1.35 1.912-2.34.78-.78 1.395-1.523 1.845-2.228.45-.705.675-1.552.675-2.542 0-1.68-.615-2.97-1.845-3.87-1.23-.9-2.685-1.35-4.365-1.35-1.71 0-3.097.45-4.162 1.35-1.065.9-1.808 1.98-2.228 3.24l2.97 1.17c.15-.54.488-1.125 1.013-1.755.525-.63 1.327-.945 2.407-.945.96 0 1.68.262 2.16.787.48.525.72 1.103.72 1.733 0 .6-.18 1.162-.54 1.687a7.24 7.24 0 0 1-1.35 1.463c-1.32 1.17-2.13 2.055-2.43 2.655-.3.6-.45 1.695-.45 3.285Zm1.71 14.13c-2.49 0-4.83-.473-7.02-1.418-2.19-.945-4.095-2.227-5.715-3.847s-2.902-3.525-3.847-5.715c-.945-2.19-1.418-4.53-1.418-7.02 0-2.49.473-4.83 1.418-7.02.945-2.19 2.227-4.095 3.847-5.715s3.525-2.903 5.715-3.848c2.19-.945 4.53-1.417 7.02-1.417 2.49 0 4.83.472 7.02 1.417 2.19.945 4.095 2.228 5.715 3.848 1.62 1.62 2.903 3.525 3.848 5.715.945 2.19 1.417 4.53 1.417 7.02 0 2.49-.472 4.83-1.417 7.02-.945 2.19-2.228 4.095-3.848 5.715-1.62 1.62-3.525 2.902-5.715 3.847-2.19.945-4.53 1.418-7.02 1.418Zm0-3.6c4.02 0 7.425-1.395 10.215-4.185 2.79-2.79 4.185-6.195 4.185-10.215S31.747 11.25 28.957 8.46c-2.79-2.79-6.195-4.185-10.215-4.185S11.317 5.67 8.527 8.46c-2.79 2.79-4.185 6.195-4.185 10.215S5.737 26.1 8.527 28.89c2.79 2.79 6.195 4.185 10.215 4.185Z"></path>
    </symbol>
        <symbol viewBox="0 0 24 24" id="arrow-right-icon">
      <mask x="0" y="0" maskUnits="userSpaceOnUse">
        <path fill="currentColor" d="M0 0h24v24H0z"></path>
      </mask>
      <g>
        <path fill="currentCurrentColor" d="M4 12.342v-1.389l13.094-.006-5.949-5.95.998-.997 7.647 7.648-7.647 7.647-.998-.997 5.95-5.95L4 12.342Z"></path>
      </g>
    </symbol>
        <symbol id="eco-badge-a" viewBox="0 0 91.15 50.12" xmlns="http://www.w3.org/2000/svg">
        <defs>
        <style>.acls-6{fill:#231f20}</style>
        </defs>
        <path d="M69.5.73h21.33v49H69.5z" style="fill:#fff"></path>
        <g id="aA_CompleteCycle">
        <path d="M22.62.77.29 25.06l22.33 24.29h49V.77h-49z" style="fill:#00a651"></path>
        <path d="M23.1.41h67.28c.2 0 .36.16.36.36v48.58c0 .2-.16.36-.36.36H23.1c-.1 0-.2-.04-.26-.12L.5 25.3a.344.344 0 0 1 0-.48L22.84.52c.07-.07.16-.12.26-.12Z" style="fill:none;stroke-linecap:round;stroke-linejoin:round;stroke:#231f20;stroke-width:.82px"></path>
        <path d="M86.78 15.17c.08.23.12.4.14.54.02.13 0 .23-.08.3s-.19.11-.37.12c-.18.02-.42.02-.72.02s-.57 0-.75-.01c-.18 0-.31-.03-.41-.06a.427.427 0 0 1-.2-.12.528.528 0 0 1-.09-.2l-.82-2.45h-4.57l-.77 2.38a.64.64 0 0 1-.1.22c-.04.06-.11.11-.2.14-.09.03-.22.06-.39.07-.17.01-.38.02-.65.02-.29 0-.51 0-.68-.03-.16-.02-.28-.06-.34-.14-.06-.07-.08-.17-.07-.31.02-.13.07-.31.14-.53l3.75-10.8c.04-.11.08-.19.13-.26s.13-.12.24-.15c.11-.03.26-.06.46-.07s.45-.01.77-.01c.37 0 .66 0 .88.01.22 0 .39.03.51.07.12.03.21.09.26.16s.1.16.14.28l3.76 10.79ZM81.2 6.25l-1.72 5.17h3.45l-1.72-5.17Z" class="acls-6"></path>
        <path d="M81.33 30.37V20.01m2.75 2.7-2.75-2.75-2.74 2.75" style="stroke:#231f20;fill:none;stroke-linecap:round;stroke-linejoin:round;stroke-width:1.07px"></path>
        <path d="M86.07 35.95c0 .18 0 .33-.02.46-.01.13-.03.23-.06.31-.03.08-.06.13-.09.16a.21.21 0 0 1-.13.05c-.07 0-.19-.06-.36-.17a6.16 6.16 0 0 0-.66-.36c-.27-.13-.6-.25-.98-.36s-.82-.17-1.33-.17c-.54 0-1.02.1-1.46.3-.44.2-.81.49-1.12.85s-.55.81-.71 1.33c-.17.52-.25 1.09-.25 1.71 0 .69.08 1.29.25 1.81.17.52.4.96.71 1.31s.67.62 1.09.8c.43.18.9.27 1.41.27.25 0 .5-.03.75-.09s.47-.15.69-.28v-2.79h-2.1c-.1 0-.18-.07-.24-.21-.06-.14-.09-.38-.09-.71 0-.17 0-.32.02-.44.01-.12.04-.21.06-.28.03-.07.06-.12.1-.16s.09-.05.14-.05h3.75a.525.525 0 0 1 .43.2c.06.07.1.15.12.25.03.1.04.21.04.33v4.78c0 .19-.03.35-.09.49s-.18.25-.37.33c-.19.08-.42.16-.69.25s-.56.16-.85.22a9.082 9.082 0 0 1-1.8.19c-.89 0-1.68-.14-2.38-.41s-1.29-.67-1.78-1.2c-.49-.52-.86-1.16-1.12-1.91-.26-.75-.39-1.6-.39-2.56s.14-1.87.41-2.65c.27-.78.66-1.45 1.17-2s1.11-.97 1.82-1.26c.71-.29 1.51-.44 2.38-.44.48 0 .92.04 1.31.11.4.07.74.16 1.03.26s.54.21.73.33c.19.12.33.22.41.31.08.09.13.21.17.37.03.16.05.39.05.7Z" class="acls-6"></path>
        <path d="M55.63 36.15c.14.45.22.8.26 1.06.03.26-.01.45-.14.58s-.35.21-.67.24c-.32.03-.76.05-1.32.05s-1.04 0-1.36-.03-.58-.06-.75-.11c-.17-.06-.29-.13-.36-.23s-.13-.23-.17-.39l-1.49-4.83h-8.34l-1.41 4.7c-.05.17-.11.32-.18.44-.07.12-.19.21-.36.28-.17.07-.4.11-.7.14-.3.02-.7.04-1.19.04-.53 0-.94-.02-1.24-.06s-.5-.13-.62-.27c-.11-.14-.15-.34-.12-.6.03-.26.12-.61.26-1.04l6.85-21.31c.07-.21.15-.38.24-.51s.24-.23.44-.3c.2-.07.48-.11.83-.13s.82-.03 1.41-.03c.67 0 1.21 0 1.61.03s.71.06.94.13.38.17.48.31.18.32.25.56l6.86 21.3ZM45.44 18.53h-.02l-3.14 10.21h6.3l-3.14-10.21Z" style="stroke-miterlimit:10;stroke-width:.5px;fill:#fff;stroke:#231f20"></path>
        </g>
    </symbol>
        <symbol id="eco-badge-b" viewBox="0 0 91.15 50.12" xmlns="http://www.w3.org/2000/svg">
        <defs>
        <style>.acls-6{fill:#231f20}</style>
        </defs>
        <path d="M69.5.73h21.33v49H69.5z" style="fill:#fff"></path>
        <g id="aB_CompleteCycle">
        <path d="M22.62.77.29 25.06l22.33 24.29h49V.77h-49z" style="fill:#50b848"></path>
        <path d="M23.1.41h67.28c.2 0 .36.16.36.36v48.58c0 .2-.16.36-.36.36H23.1c-.1 0-.2-.04-.26-.12L.5 25.3a.344.344 0 0 1 0-.48L22.84.52c.07-.07.16-.12.26-.12Z" style="fill:none;stroke:#231f20;stroke-linecap:round;stroke-linejoin:round;stroke-width:.82px"></path>
        <path d="M86.78 15.17c.08.23.12.4.14.54.02.13 0 .23-.08.3s-.19.11-.37.12c-.18.02-.42.02-.72.02s-.57 0-.75-.01c-.18 0-.31-.03-.41-.06a.427.427 0 0 1-.2-.12.528.528 0 0 1-.09-.2l-.82-2.45h-4.57l-.77 2.38a.64.64 0 0 1-.1.22c-.04.06-.11.11-.2.14-.09.03-.22.06-.39.07-.17.01-.38.02-.65.02-.29 0-.51 0-.68-.03-.16-.02-.28-.06-.34-.14-.06-.07-.08-.17-.07-.31.02-.13.07-.31.14-.53l3.75-10.8c.04-.11.08-.19.13-.26s.13-.12.24-.15c.11-.03.26-.06.46-.07s.45-.01.77-.01c.37 0 .66 0 .88.01.22 0 .39.03.51.07.12.03.21.09.26.16s.1.16.14.28l3.76 10.79ZM81.2 6.25l-1.72 5.17h3.45l-1.72-5.17Z" class="acls-6"></path>
        <path d="M81.33 30.37V20.01m2.75 2.7-2.75-2.75-2.74 2.75" style="stroke:#231f20;stroke-linecap:round;stroke-linejoin:round;fill:none;stroke-width:1.07px"></path>
        <path d="M86.07 35.95c0 .18 0 .33-.02.46-.01.13-.03.23-.06.31-.03.08-.06.13-.09.16a.21.21 0 0 1-.13.05c-.07 0-.19-.06-.36-.17a6.16 6.16 0 0 0-.66-.36c-.27-.13-.6-.25-.98-.36s-.82-.17-1.33-.17c-.54 0-1.02.1-1.46.3-.44.2-.81.49-1.12.85s-.55.81-.71 1.33c-.17.52-.25 1.09-.25 1.71 0 .69.08 1.29.25 1.81.17.52.4.96.71 1.31s.67.62 1.09.8c.43.18.9.27 1.41.27.25 0 .5-.03.75-.09s.47-.15.69-.28v-2.79h-2.1c-.1 0-.18-.07-.24-.21-.06-.14-.09-.38-.09-.71 0-.17 0-.32.02-.44.01-.12.04-.21.06-.28.03-.07.06-.12.1-.16s.09-.05.14-.05h3.75a.525.525 0 0 1 .43.2c.06.07.1.15.12.25.03.1.04.21.04.33v4.78c0 .19-.03.35-.09.49s-.18.25-.37.33c-.19.08-.42.16-.69.25s-.56.16-.85.22a9.082 9.082 0 0 1-1.8.19c-.89 0-1.68-.14-2.38-.41s-1.29-.67-1.78-1.2c-.49-.52-.86-1.16-1.12-1.91-.26-.75-.39-1.6-.39-2.56s.14-1.87.41-2.65c.27-.78.66-1.45 1.17-2s1.11-.97 1.82-1.26c.71-.29 1.51-.44 2.38-.44.48 0 .92.04 1.31.11.4.07.74.16 1.03.26s.54.21.73.33c.19.12.33.22.41.31.08.09.13.21.17.37.03.16.05.39.05.7Z" class="acls-6"></path>
        <path d="M53.52 30.76c0 .85-.11 1.63-.33 2.32s-.52 1.31-.9 1.84-.84.99-1.37 1.37-1.12.7-1.76.95c-.64.25-1.32.43-2.05.55-.73.12-1.54.18-2.43.18h-5.9c-.38 0-.69-.12-.95-.36s-.39-.63-.39-1.18V15.49c0-.54.13-.94.39-1.18s.57-.36.95-.36h5.58c1.36 0 2.51.12 3.46.37s1.74.62 2.39 1.12c.65.5 1.14 1.14 1.48 1.9s.52 1.67.52 2.71c0 .58-.07 1.13-.21 1.64-.14.51-.34.98-.6 1.4-.26.42-.59.79-.97 1.11-.38.32-.82.58-1.31.78.63.12 1.21.34 1.74.65s1 .71 1.39 1.2c.4.49.71 1.06.94 1.72.23.66.34 1.39.34 2.21Zm-5.83-10.12c0-.48-.07-.92-.21-1.3-.14-.38-.34-.7-.62-.96-.27-.25-.62-.45-1.04-.58-.42-.14-.98-.2-1.67-.2h-2.28v6.24h2.52c.65 0 1.17-.08 1.56-.25.39-.17.71-.4.97-.69.26-.29.45-.63.58-1.02.13-.39.19-.8.19-1.23Zm1.15 10.29c0-.56-.09-1.06-.26-1.5-.17-.44-.42-.81-.75-1.1-.33-.3-.76-.53-1.27-.69-.52-.16-1.18-.24-2.01-.24h-2.68v6.83h3.26c.63 0 1.16-.07 1.59-.21.43-.14.8-.35 1.12-.63.31-.28.56-.62.74-1.04.18-.42.27-.89.27-1.42Z" style="stroke-width:.5px;fill:#fff;stroke:#231f20;stroke-linecap:round;stroke-linejoin:round"></path>
        </g>
    </symbol>
        <symbol id="eco-badge-c" viewBox="0 0 91.15 50.12" xmlns="http://www.w3.org/2000/svg">
        <defs>
          <style>.acls-6{fill:#231f20}</style>
        </defs>
        <path d="M69.5.73h21.33v49H69.5z" style="fill:#fff"></path>
        <g id="aC_CompleteCycle">
          <path d="M22.62.77.29 25.06l22.33 24.29h49V.77h-49z" style="fill:#bfd730"></path>
          <path d="M23.1.41h67.28c.2 0 .36.16.36.36v48.58c0 .2-.16.36-.36.36H23.1c-.1 0-.2-.04-.26-.12L.5 25.3a.344.344 0 0 1 0-.48L22.84.52c.07-.07.16-.12.26-.12Z" style="fill:none;stroke:#231f20;stroke-linecap:round;stroke-linejoin:round;stroke-width:.82px"></path>
          <path d="M86.78 15.17c.08.23.12.4.14.54.02.13 0 .23-.08.3s-.19.11-.37.12c-.18.02-.42.02-.72.02s-.57 0-.75-.01c-.18 0-.31-.03-.41-.06a.427.427 0 0 1-.2-.12.528.528 0 0 1-.09-.2l-.82-2.45h-4.57l-.77 2.38a.64.64 0 0 1-.1.22c-.04.06-.11.11-.2.14-.09.03-.22.06-.39.07-.17.01-.38.02-.65.02-.29 0-.51 0-.68-.03-.16-.02-.28-.06-.34-.14-.06-.07-.08-.17-.07-.31.02-.13.07-.31.14-.53l3.75-10.8c.04-.11.08-.19.13-.26s.13-.12.24-.15c.11-.03.26-.06.46-.07s.45-.01.77-.01c.37 0 .66 0 .88.01.22 0 .39.03.51.07.12.03.21.09.26.16s.1.16.14.28l3.76 10.79ZM81.2 6.25l-1.72 5.17h3.45l-1.72-5.17Z" class="acls-6"></path>
          <path d="M81.33 30.37V20.01m2.75 2.7-2.75-2.75-2.74 2.75" style="stroke:#231f20;stroke-linecap:round;stroke-linejoin:round;fill:none;stroke-width:1.07px"></path>
          <path d="M86.07 35.95c0 .18 0 .33-.02.46-.01.13-.03.23-.06.31-.03.08-.06.13-.09.16a.21.21 0 0 1-.13.05c-.07 0-.19-.06-.36-.17a6.16 6.16 0 0 0-.66-.36c-.27-.13-.6-.25-.98-.36s-.82-.17-1.33-.17c-.54 0-1.02.1-1.46.3-.44.2-.81.49-1.12.85s-.55.81-.71 1.33c-.17.52-.25 1.09-.25 1.71 0 .69.08 1.29.25 1.81.17.52.4.96.71 1.31s.67.62 1.09.8c.43.18.9.27 1.41.27.25 0 .5-.03.75-.09s.47-.15.69-.28v-2.79h-2.1c-.1 0-.18-.07-.24-.21-.06-.14-.09-.38-.09-.71 0-.17 0-.32.02-.44.01-.12.04-.21.06-.28.03-.07.06-.12.1-.16s.09-.05.14-.05h3.75a.525.525 0 0 1 .43.2c.06.07.1.15.12.25.03.1.04.21.04.33v4.78c0 .19-.03.35-.09.49s-.18.25-.37.33c-.19.08-.42.16-.69.25s-.56.16-.85.22a9.082 9.082 0 0 1-1.8.19c-.89 0-1.68-.14-2.38-.41s-1.29-.67-1.78-1.2c-.49-.52-.86-1.16-1.12-1.91-.26-.75-.39-1.6-.39-2.56s.14-1.87.41-2.65c.27-.78.66-1.45 1.17-2s1.11-.97 1.82-1.26c.71-.29 1.51-.44 2.38-.44.48 0 .92.04 1.31.11.4.07.74.16 1.03.26s.54.21.73.33c.19.12.33.22.41.31.08.09.13.21.17.37.03.16.05.39.05.7Z" class="acls-6"></path>
          <path d="M52.8 34.33c0 .31 0 .57-.03.79s-.04.4-.08.56c-.03.16-.08.29-.14.4-.06.11-.15.24-.27.38-.13.14-.37.32-.73.55-.36.22-.8.44-1.32.64s-1.12.37-1.78.51c-.67.14-1.39.2-2.17.2-1.52 0-2.89-.25-4.12-.76a8.198 8.198 0 0 1-3.12-2.27c-.86-1.01-1.52-2.27-1.97-3.78-.46-1.51-.69-3.27-.69-5.27s.25-3.86.75-5.44c.5-1.58 1.21-2.91 2.11-3.99.9-1.08 1.99-1.89 3.25-2.45s2.66-.84 4.18-.84c.62 0 1.21.06 1.78.17s1.1.26 1.59.44.92.39 1.31.62c.39.23.66.44.82.6.15.17.26.31.32.42s.1.25.14.43c.03.17.06.38.08.61.02.24.03.53.03.87 0 .37-.01.69-.03.95-.02.26-.06.47-.12.63-.06.16-.13.28-.21.35s-.17.11-.27.11c-.17 0-.39-.11-.65-.32-.26-.22-.6-.46-1.02-.72-.42-.27-.92-.51-1.49-.72-.58-.22-1.27-.33-2.07-.33-.88 0-1.67.2-2.36.58-.69.39-1.28.95-1.77 1.67s-.86 1.6-1.11 2.63c-.25 1.03-.38 2.19-.38 3.47 0 1.41.13 2.63.4 3.67.27 1.03.65 1.88 1.15 2.55.5.67 1.1 1.17 1.8 1.5s1.5.49 2.38.49c.8 0 1.49-.1 2.08-.31s1.08-.43 1.5-.68c.42-.25.76-.47 1.03-.67.27-.2.48-.3.63-.3.11 0 .21.03.27.07.07.05.13.15.17.3.05.15.08.36.1.62.02.27.03.62.03 1.07Z" style="stroke-width:.5px;fill:#fff;stroke:#231f20;stroke-linecap:round;stroke-linejoin:round"></path>
        </g>
    </symbol>
        <symbol id="eco-badge-d" viewBox="0 0 91.15 50.12" xmlns="http://www.w3.org/2000/svg">
        <defs>
          <style>.acls-3{stroke:#231f20;stroke-linecap:round;stroke-linejoin:round;fill:none;stroke-width:1.07px}.acls-6{fill:#231f20}</style>
        </defs>
        <path style="fill:#fff" d="M69.5.73h21.33v49H69.5z"></path>
        <g id="aD_CompleteCycle">
          <path style="fill:#fff200" d="M22.62.77.29 25.06l22.33 24.29h49V.77h-49z"></path>
          <path d="M23.1.41h67.28c.2 0 .36.16.36.36v48.58c0 .2-.16.36-.36.36H23.1c-.1 0-.2-.04-.26-.12L.5 25.3a.344.344 0 0 1 0-.48L22.84.52c.07-.07.16-.12.26-.12Z" style="fill:none;stroke:#231f20;stroke-linecap:round;stroke-linejoin:round;stroke-width:.82px"></path>
          <path class="acls-6" d="M86.78 15.17c.08.23.12.4.14.54.02.13 0 .23-.08.3s-.19.11-.37.12c-.18.02-.42.02-.72.02s-.57 0-.75-.01c-.18 0-.31-.03-.41-.06a.427.427 0 0 1-.2-.12.528.528 0 0 1-.09-.2l-.82-2.45h-4.57l-.77 2.38a.64.64 0 0 1-.1.22c-.04.06-.11.11-.2.14-.09.03-.22.06-.39.07-.17.01-.38.02-.65.02-.29 0-.51 0-.68-.03-.16-.02-.28-.06-.34-.14-.06-.07-.08-.17-.07-.31.02-.13.07-.31.14-.53l3.75-10.8c.04-.11.08-.19.13-.26s.13-.12.24-.15c.11-.03.26-.06.46-.07s.45-.01.77-.01c.37 0 .66 0 .88.01.22 0 .39.03.51.07.12.03.21.09.26.16s.1.16.14.28l3.76 10.79ZM81.2 6.25l-1.72 5.17h3.45l-1.72-5.17Z"></path>
          <path class="acls-3" d="M81.33 30.37V20.01M84.08 22.71l-2.75-2.75-2.74 2.75"></path>
          <path class="acls-6" d="M86.07 35.95c0 .18 0 .33-.02.46-.01.13-.03.23-.06.31-.03.08-.06.13-.09.16a.21.21 0 0 1-.13.05c-.07 0-.19-.06-.36-.17a6.16 6.16 0 0 0-.66-.36c-.27-.13-.6-.25-.98-.36s-.82-.17-1.33-.17c-.54 0-1.02.1-1.46.3-.44.2-.81.49-1.12.85s-.55.81-.71 1.33c-.17.52-.25 1.09-.25 1.71 0 .69.08 1.29.25 1.81.17.52.4.96.71 1.31s.67.62 1.09.8c.43.18.9.27 1.41.27.25 0 .5-.03.75-.09s.47-.15.69-.28v-2.79h-2.1c-.1 0-.18-.07-.24-.21-.06-.14-.09-.38-.09-.71 0-.17 0-.32.02-.44.01-.12.04-.21.06-.28.03-.07.06-.12.1-.16s.09-.05.14-.05h3.75a.525.525 0 0 1 .43.2c.06.07.1.15.12.25.03.1.04.21.04.33v4.78c0 .19-.03.35-.09.49s-.18.25-.37.33c-.19.08-.42.16-.69.25s-.56.16-.85.22a9.082 9.082 0 0 1-1.8.19c-.89 0-1.68-.14-2.38-.41s-1.29-.67-1.78-1.2c-.49-.52-.86-1.16-1.12-1.91-.26-.75-.39-1.6-.39-2.56s.14-1.87.41-2.65c.27-.78.66-1.45 1.17-2s1.11-.97 1.82-1.26c.71-.29 1.51-.44 2.38-.44.48 0 .92.04 1.31.11.4.07.74.16 1.03.26s.54.21.73.33c.19.12.33.22.41.31.08.09.13.21.17.37.03.16.05.39.05.7Z"></path>
          <path d="M55.89 25.6c0 2.2-.27 4.09-.8 5.65-.53 1.57-1.3 2.84-2.29 3.83-1 .99-2.21 1.72-3.63 2.18s-3.12.7-5.09.7h-5.3c-.38 0-.69-.12-.95-.36s-.39-.63-.39-1.18V15.49c0-.54.13-.94.39-1.18s.57-.36.95-.36h5.7c1.98 0 3.66.25 5.04.75s2.54 1.24 3.48 2.23c.94.98 1.66 2.2 2.15 3.65.49 1.45.74 3.13.74 5.03Zm-4.67.17c0-1.14-.12-2.2-.37-3.17-.25-.98-.64-1.83-1.18-2.54a5.485 5.485 0 0 0-2.09-1.68c-.85-.4-1.97-.6-3.35-.6h-2.28v16.34h2.35c1.24 0 2.28-.17 3.12-.52.85-.35 1.55-.87 2.12-1.57s.99-1.57 1.27-2.61c.28-1.04.42-2.25.42-3.64Z" style="stroke-width:.5px;fill:#fff;stroke:#231f20;stroke-linecap:round;stroke-linejoin:round"></path>
        </g>
    </symbol>
        <symbol id="eco-badge-e" viewBox="0 0 91.15 50.12" xmlns="http://www.w3.org/2000/svg">
        <defs>
          <style>.acls-3{stroke:#231f20;stroke-linecap:round;stroke-linejoin:round;fill:none;stroke-width:1.07px}.acls-6{fill:#231f20}</style>
        </defs>
        <path style="fill:#fff" d="M69.5.73h21.33v49H69.5z"></path>
        <g id="aE_CompleteCycle">
          <path style="fill:#fdb913" d="M22.62.77.29 25.06l22.33 24.29h49V.77h-49z"></path>
          <path d="M23.1.41h67.28c.2 0 .36.16.36.36v48.58c0 .2-.16.36-.36.36H23.1c-.1 0-.2-.04-.26-.12L.5 25.3a.344.344 0 0 1 0-.48L22.84.52c.07-.07.16-.12.26-.12Z" style="fill:none;stroke:#231f20;stroke-linecap:round;stroke-linejoin:round;stroke-width:.82px"></path>
          <path class="acls-6" d="M86.78 15.17c.08.23.12.4.14.54.02.13 0 .23-.08.3s-.19.11-.37.12c-.18.02-.42.02-.72.02s-.57 0-.75-.01c-.18 0-.31-.03-.41-.06a.427.427 0 0 1-.2-.12.528.528 0 0 1-.09-.2l-.82-2.45h-4.57l-.77 2.38a.64.64 0 0 1-.1.22c-.04.06-.11.11-.2.14-.09.03-.22.06-.39.07-.17.01-.38.02-.65.02-.29 0-.51 0-.68-.03-.16-.02-.28-.06-.34-.14-.06-.07-.08-.17-.07-.31.02-.13.07-.31.14-.53l3.75-10.8c.04-.11.08-.19.13-.26s.13-.12.24-.15c.11-.03.26-.06.46-.07s.45-.01.77-.01c.37 0 .66 0 .88.01.22 0 .39.03.51.07.12.03.21.09.26.16s.1.16.14.28l3.76 10.79ZM81.2 6.25l-1.72 5.17h3.45l-1.72-5.17Z"></path>
          <path class="acls-3" d="M81.33 30.37V20.01M84.08 22.71l-2.75-2.75-2.74 2.75"></path>
          <path class="acls-6" d="M86.07 35.95c0 .18 0 .33-.02.46-.01.13-.03.23-.06.31-.03.08-.06.13-.09.16a.21.21 0 0 1-.13.05c-.07 0-.19-.06-.36-.17a6.16 6.16 0 0 0-.66-.36c-.27-.13-.6-.25-.98-.36s-.82-.17-1.33-.17c-.54 0-1.02.1-1.46.3-.44.2-.81.49-1.12.85s-.55.81-.71 1.33c-.17.52-.25 1.09-.25 1.71 0 .69.08 1.29.25 1.81.17.52.4.96.71 1.31s.67.62 1.09.8c.43.18.9.27 1.41.27.25 0 .5-.03.75-.09s.47-.15.69-.28v-2.79h-2.1c-.1 0-.18-.07-.24-.21-.06-.14-.09-.38-.09-.71 0-.17 0-.32.02-.44.01-.12.04-.21.06-.28.03-.07.06-.12.1-.16s.09-.05.14-.05h3.75a.525.525 0 0 1 .43.2c.06.07.1.15.12.25.03.1.04.21.04.33v4.78c0 .19-.03.35-.09.49s-.18.25-.37.33c-.19.08-.42.16-.69.25s-.56.16-.85.22a9.082 9.082 0 0 1-1.8.19c-.89 0-1.68-.14-2.38-.41s-1.29-.67-1.78-1.2c-.49-.52-.86-1.16-1.12-1.91-.26-.75-.39-1.6-.39-2.56s.14-1.87.41-2.65c.27-.78.66-1.45 1.17-2s1.11-.97 1.82-1.26c.71-.29 1.51-.44 2.38-.44.48 0 .92.04 1.31.11.4.07.74.16 1.03.26s.54.21.73.33c.19.12.33.22.41.31.08.09.13.21.17.37.03.16.05.39.05.7Z"></path>
          <path d="M50.6 36.06c0 .36-.01.66-.04.9s-.07.44-.13.58-.13.26-.21.32c-.09.07-.18.1-.28.1H38.78c-.38 0-.69-.12-.95-.36s-.39-.63-.39-1.18V15.49c0-.54.13-.94.39-1.18s.57-.36.95-.36h11.09c.1 0 .19.03.27.09.08.06.15.17.21.32s.1.35.13.59.04.55.04.92c0 .35-.01.64-.04.88s-.07.44-.13.58c-.06.15-.13.26-.21.32-.08.07-.17.1-.27.1h-7.93v5.87h6.71c.1 0 .2.03.28.1.09.07.16.17.21.32.06.14.1.33.13.58.03.24.04.54.04.88s-.01.66-.04.89c-.03.24-.07.42-.13.57a.84.84 0 0 1-.21.31.49.49 0 0 1-.28.09h-6.71v6.78h8c.1 0 .2.03.28.1.09.07.16.18.21.33s.1.34.13.58c.03.24.04.54.04.9Z" style="stroke-width:.5px;fill:#fff;stroke:#231f20;stroke-linecap:round;stroke-linejoin:round"></path>
        </g>
    </symbol>
        <symbol id="eco-badge-f" viewBox="0 0 91.15 50.12" xmlns="http://www.w3.org/2000/svg">
        <defs>
          <style>.acls-3{stroke:#231f20;stroke-linecap:round;stroke-linejoin:round;fill:none;stroke-width:1.07px}.acls-6{fill:#231f20}</style>
        </defs>
        <path style="fill:#fff" d="M69.5.73h21.33v49H69.5z"></path>
        <g id="aF_CompleteCycle">
          <path style="fill:#f37021" d="M22.62.77.29 25.06l22.33 24.29h49V.77h-49z"></path>
          <path d="M23.1.41h67.28c.2 0 .36.16.36.36v48.58c0 .2-.16.36-.36.36H23.1c-.1 0-.2-.04-.26-.12L.5 25.3a.344.344 0 0 1 0-.48L22.84.52c.07-.07.16-.12.26-.12Z" style="fill:none;stroke:#231f20;stroke-linecap:round;stroke-linejoin:round;stroke-width:.82px"></path>
          <path class="acls-6" d="M86.78 15.17c.08.23.12.4.14.54.02.13 0 .23-.08.3s-.19.11-.37.12c-.18.02-.42.02-.72.02s-.57 0-.75-.01c-.18 0-.31-.03-.41-.06a.427.427 0 0 1-.2-.12.528.528 0 0 1-.09-.2l-.82-2.45h-4.57l-.77 2.38a.64.64 0 0 1-.1.22c-.04.06-.11.11-.2.14-.09.03-.22.06-.39.07-.17.01-.38.02-.65.02-.29 0-.51 0-.68-.03-.16-.02-.28-.06-.34-.14-.06-.07-.08-.17-.07-.31.02-.13.07-.31.14-.53l3.75-10.8c.04-.11.08-.19.13-.26s.13-.12.24-.15c.11-.03.26-.06.46-.07s.45-.01.77-.01c.37 0 .66 0 .88.01.22 0 .39.03.51.07.12.03.21.09.26.16s.1.16.14.28l3.76 10.79ZM81.2 6.25l-1.72 5.17h3.45l-1.72-5.17Z"></path>
          <path class="acls-3" d="M81.33 30.37V20.01M84.08 22.71l-2.75-2.75-2.74 2.75"></path>
          <path class="acls-6" d="M86.07 35.95c0 .18 0 .33-.02.46-.01.13-.03.23-.06.31-.03.08-.06.13-.09.16a.21.21 0 0 1-.13.05c-.07 0-.19-.06-.36-.17a6.16 6.16 0 0 0-.66-.36c-.27-.13-.6-.25-.98-.36s-.82-.17-1.33-.17c-.54 0-1.02.1-1.46.3-.44.2-.81.49-1.12.85s-.55.81-.71 1.33c-.17.52-.25 1.09-.25 1.71 0 .69.08 1.29.25 1.81.17.52.4.96.71 1.31s.67.62 1.09.8c.43.18.9.27 1.41.27.25 0 .5-.03.75-.09s.47-.15.69-.28v-2.79h-2.1c-.1 0-.18-.07-.24-.21-.06-.14-.09-.38-.09-.71 0-.17 0-.32.02-.44.01-.12.04-.21.06-.28.03-.07.06-.12.1-.16s.09-.05.14-.05h3.75a.525.525 0 0 1 .43.2c.06.07.1.15.12.25.03.1.04.21.04.33v4.78c0 .19-.03.35-.09.49s-.18.25-.37.33c-.19.08-.42.16-.69.25s-.56.16-.85.22a9.082 9.082 0 0 1-1.8.19c-.89 0-1.68-.14-2.38-.41s-1.29-.67-1.78-1.2c-.49-.52-.86-1.16-1.12-1.91-.26-.75-.39-1.6-.39-2.56s.14-1.87.41-2.65c.27-.78.66-1.45 1.17-2s1.11-.97 1.82-1.26c.71-.29 1.51-.44 2.38-.44.48 0 .92.04 1.31.11.4.07.74.16 1.03.26s.54.21.73.33c.19.12.33.22.41.31.08.09.13.21.17.37.03.16.05.39.05.7Z"></path>
          <path d="M49.9 15.95c0 .37-.01.68-.04.94-.03.25-.07.46-.14.6-.06.15-.13.26-.21.33-.08.07-.17.11-.27.11h-7.26v6.46h6.81c.1 0 .19.03.27.09s.15.17.21.32.11.35.14.59c.03.25.04.56.04.93s-.01.68-.04.93a2.2 2.2 0 0 1-.14.61c-.06.16-.13.28-.21.34-.08.07-.17.1-.27.1h-6.81v8.95c0 .14-.03.25-.1.35-.07.1-.19.18-.37.25s-.41.12-.7.16c-.29.04-.65.06-1.1.06s-.8-.02-1.09-.06c-.29-.04-.52-.09-.7-.16a.89.89 0 0 1-.37-.25.606.606 0 0 1-.11-.35V15.49c0-.54.13-.94.39-1.18s.57-.36.95-.36h10.45c.1 0 .19.03.27.1s.15.18.21.33c.06.15.11.36.14.62.03.26.04.58.04.95Z" style="stroke-width:.5px;fill:#fff;stroke:#231f20;stroke-linecap:round;stroke-linejoin:round"></path>
        </g>
    </symbol>
        <symbol id="eco-badge-g" viewBox="0 0 91.15 50.12" xmlns="http://www.w3.org/2000/svg">
      <defs>
        <style>.acls-3{stroke:#231f20;stroke-linecap:round;stroke-linejoin:round;fill:none;stroke-width:1.07px}.acls-6{fill:#231f20}</style>
      </defs>
      <path style="fill:#fff" d="M69.5.73h21.33v49H69.5z"></path>
      <g id="aG_CompleteCycle">
        <path style="fill:#ed1c24" d="M22.62.77.29 25.06l22.33 24.29h49V.77h-49z"></path>
        <path d="M23.1.41h67.28c.2 0 .36.16.36.36v48.58c0 .2-.16.36-.36.36H23.1c-.1 0-.2-.04-.26-.12L.5 25.3a.344.344 0 0 1 0-.48L22.84.52c.07-.07.16-.12.26-.12Z" style="fill:none;stroke:#231f20;stroke-linecap:round;stroke-linejoin:round;stroke-width:.82px"></path>
        <path class="acls-6" d="M86.78 15.17c.08.23.12.4.14.54.02.13 0 .23-.08.3s-.19.11-.37.12c-.18.02-.42.02-.72.02s-.57 0-.75-.01c-.18 0-.31-.03-.41-.06a.427.427 0 0 1-.2-.12.528.528 0 0 1-.09-.2l-.82-2.45h-4.57l-.77 2.38a.64.64 0 0 1-.1.22c-.04.06-.11.11-.2.14-.09.03-.22.06-.39.07-.17.01-.38.02-.65.02-.29 0-.51 0-.68-.03-.16-.02-.28-.06-.34-.14-.06-.07-.08-.17-.07-.31.02-.13.07-.31.14-.53l3.75-10.8c.04-.11.08-.19.13-.26s.13-.12.24-.15c.11-.03.26-.06.46-.07s.45-.01.77-.01c.37 0 .66 0 .88.01.22 0 .39.03.51.07.12.03.21.09.26.16s.1.16.14.28l3.76 10.79ZM81.2 6.25l-1.72 5.17h3.45l-1.72-5.17Z"></path>
        <path class="acls-3" d="M81.33 30.37V20.01M84.08 22.71l-2.75-2.75-2.74 2.75"></path>
        <path class="acls-6" d="M86.07 35.95c0 .18 0 .33-.02.46-.01.13-.03.23-.06.31-.03.08-.06.13-.09.16a.21.21 0 0 1-.13.05c-.07 0-.19-.06-.36-.17a6.16 6.16 0 0 0-.66-.36c-.27-.13-.6-.25-.98-.36s-.82-.17-1.33-.17c-.54 0-1.02.1-1.46.3-.44.2-.81.49-1.12.85s-.55.81-.71 1.33c-.17.52-.25 1.09-.25 1.71 0 .69.08 1.29.25 1.81.17.52.4.96.71 1.31s.67.62 1.09.8c.43.18.9.27 1.41.27.25 0 .5-.03.75-.09s.47-.15.69-.28v-2.79h-2.1c-.1 0-.18-.07-.24-.21-.06-.14-.09-.38-.09-.71 0-.17 0-.32.02-.44.01-.12.04-.21.06-.28.03-.07.06-.12.1-.16s.09-.05.14-.05h3.75a.525.525 0 0 1 .43.2c.06.07.1.15.12.25.03.1.04.21.04.33v4.78c0 .19-.03.35-.09.49s-.18.25-.37.33c-.19.08-.42.16-.69.25s-.56.16-.85.22a9.082 9.082 0 0 1-1.8.19c-.89 0-1.68-.14-2.38-.41s-1.29-.67-1.78-1.2c-.49-.52-.86-1.16-1.12-1.91-.26-.75-.39-1.6-.39-2.56s.14-1.87.41-2.65c.27-.78.66-1.45 1.17-2s1.11-.97 1.82-1.26c.71-.29 1.51-.44 2.38-.44.48 0 .92.04 1.31.11.4.07.74.16 1.03.26s.54.21.73.33c.19.12.33.22.41.31.08.09.13.21.17.37.03.16.05.39.05.7Z"></path>
        <path d="M55.25 17.68c0 .36-.01.67-.04.93s-.07.47-.12.62c-.05.16-.11.26-.19.33a.4.4 0 0 1-.27.09c-.15 0-.39-.11-.72-.33-.33-.22-.77-.46-1.32-.72-.55-.26-1.2-.5-1.97-.72-.76-.22-1.64-.33-2.65-.33-1.08 0-2.05.2-2.92.6-.87.4-1.61.97-2.23 1.71-.62.74-1.09 1.62-1.42 2.65-.33 1.03-.5 2.18-.5 3.43 0 1.37.17 2.58.51 3.63.34 1.05.81 1.92 1.42 2.63a5.86 5.86 0 0 0 2.19 1.6c.85.36 1.79.54 2.82.54.5 0 1-.06 1.49-.19a5 5 0 0 0 1.37-.56v-5.57h-4.21c-.21 0-.37-.14-.48-.42-.11-.28-.17-.75-.17-1.42 0-.35.01-.64.04-.87.03-.23.07-.42.13-.57.06-.14.13-.25.21-.32s.17-.1.27-.1h7.5c.18 0 .35.03.49.1s.27.17.38.31c.11.14.19.3.25.49s.09.41.09.66v9.56c0 .37-.06.7-.18.98s-.37.5-.74.66c-.37.16-.83.33-1.38.5-.55.17-1.12.32-1.71.45s-1.18.22-1.78.28-1.2.09-1.81.09c-1.77 0-3.36-.28-4.76-.83-1.4-.55-2.59-1.35-3.56-2.39-.97-1.05-1.72-2.32-2.23-3.83-.52-1.5-.77-3.21-.77-5.11s.27-3.73.82-5.3c.55-1.57 1.33-2.9 2.33-3.99 1.01-1.1 2.22-1.93 3.65-2.52 1.42-.58 3.01-.87 4.76-.87.96 0 1.84.07 2.63.21.79.14 1.48.32 2.07.52s1.08.42 1.47.66c.39.24.66.44.82.61.15.17.27.42.33.73.07.32.1.78.1 1.4Z" style="stroke-width:.5px;fill:#fff;stroke:#231f20;stroke-linecap:round;stroke-linejoin:round"></path>
      </g>
    </symbol>
        <symbol id="android-logo" class="logo-android__logo-icon" viewBox="0 0 898 160">
      <path fill="none" d="M2130-164h540v486h-540z"></path>
      <path d="M2224.2 210.9c-10.7 0-17.9 8.4-17.9 19.2s7.2 19.2 17.9 19.2 17.9-8.4 17.9-19.2-7.2-19.2-17.9-19.2m-2.4-11.9c8.6 0 15.8 4.4 19.2 9.2v-8h13.2v59.9h-10.1c-1.7 0-3-1.4-3-3v-5c-3.4 4.8-10.5 9.2-19.2 9.2-16.4 0-28.9-14-28.9-31.1s12.4-31.2 28.8-31.2M2269.2 200.2h13.2v8.1c3.6-6 10.4-9.3 18.2-9.3 13.9 0 22.9 9.8 22.9 25v36.1h-10.1c-1.7 0-3-1.4-3-3v-30.9c0-9.5-4.8-15.2-12.5-15.2-8.7 0-15.5 6.8-15.5 19.6v29.5h-10.1c-1.7 0-3-1.4-3-3v-56.9zM2365.1 210.9c-10.7 0-17.9 8.4-17.9 19.2s7.2 19.2 17.9 19.2 17.9-8.4 17.9-19.2-7.2-19.2-17.9-19.2m-2.4-11.9c8.6 0 15.8 4.4 19.2 9.2v-38h13.2v89.9H2385c-1.7 0-3-1.4-3-3v-5c-3.4 4.8-10.5 9.2-19.2 9.2-16.4 0-28.9-14-28.9-31.1s12.4-31.2 28.8-31.2M2410.1 200.2h13.2v10.7c2.3-6.8 9-11.3 15.8-11.3 1.7 0 3.4.1 5.1.5v13.5c-2.3-.7-4.2-1.1-6.6-1.1-7.5 0-14.4 6.4-14.4 18.3V260h-10.1c-1.7 0-3-1.4-3-3v-56.8zM2479.7 249c10.5 0 18-8.3 18-18.9 0-10.7-7.4-18.9-18-18.9-10.7 0-18.1 8.3-18.1 18.9.1 10.7 7.5 18.9 18.1 18.9m0 12.3c-17.7 0-31.4-13.8-31.4-31.1 0-17.4 13.7-31.2 31.4-31.2s31.4 13.8 31.4 31.2c0 17.3-13.6 31.1-31.4 31.1M2521.8 200.2h13.2v59.9h-10.1c-1.7 0-3-1.4-3-3v-56.9zm6.6-13.1c-4.8 0-8.9-4-8.9-8.9 0-4.8 4.1-8.7 8.9-8.7 4.9 0 8.7 4 8.7 8.7 0 4.9-3.8 8.9-8.7 8.9M2577.1 210.9c-10.7 0-17.9 8.4-17.9 19.2s7.2 19.2 17.9 19.2 17.9-8.4 17.9-19.2c-.1-10.8-7.2-19.2-17.9-19.2m-2.4-11.9c8.6 0 15.8 4.4 19.2 9.2v-38h13.2v89.9H2597c-1.7 0-3-1.4-3-3v-5c-3.4 4.8-10.5 9.2-19.2 9.2-16.4 0-28.9-14-28.9-31.1s12.4-31.2 28.8-31.2"></path>
      <path d="M2501.5-30.8l34.5-59.7c2-3.4.8-7.8-2.6-9.8s-7.8-.8-9.8 2.6l-34.9 60.4c-26.7-12.2-56.7-19-88.6-19-32 0-61.9 6.8-88.6 19l-34.9-60.4c-2-3.4-6.4-4.6-9.8-2.6s-4.6 6.4-2.6 9.8l34.5 59.7C2239.3 1.4 2198.9 61.3 2193 132h414c-5.9-70.7-46.4-130.6-105.5-162.8zM2304.7 73c-9.5 0-17.2-7.7-17.2-17.2s7.7-17.2 17.2-17.2 17.2 7.7 17.2 17.2-7.7 17.2-17.2 17.2zm190.6 0c-9.5 0-17.2-7.7-17.2-17.2s7.7-17.2 17.2-17.2 17.2 7.7 17.2 17.2-7.7 17.2-17.2 17.2z"></path>
      <path fill="none" d="M-72-75H974v309H-72z"></path>
      <path d="M59.3 56.4c12.4 0 22.7 6.4 27.6 13.3V58.1h18.9v86.1H92.2c-3 0-5.4-2.4-5.4-5.4v-6.2c-4.8 7-15.1 13.4-27.5 13.4-23.6 0-41.5-20.2-41.5-44.8s17.9-44.8 41.5-44.8m3.4 17.2C47.4 73.6 37 85.7 37 101.2s10.3 27.6 25.7 27.6c15.3 0 25.7-12.1 25.7-27.6S78.1 73.6 62.7 73.6M127.3 58.1h19v11.7c5.2-8.6 15-13.4 26.2-13.4 20 0 32.9 14.1 32.9 36v51.8h-13.6c-3 0-5.4-2.4-5.4-5.4V95.5c0-13.6-6.9-21.9-17.9-21.9-12.6 0-22.2 9.8-22.2 28.2v42.4h-13.6c-3 0-5.4-2.4-5.4-5.4V58.1zM261.9 56.4c12.4 0 22.7 6.4 27.6 13.3V15.1h18.9v129.2h-13.6c-3 0-5.4-2.4-5.4-5.4v-6.2c-4.8 6.9-15.2 13.3-27.6 13.3-23.6 0-41.5-20.2-41.5-44.8.1-24.6 18-44.8 41.6-44.8m3.4 17.2c-15.3 0-25.7 12.1-25.7 27.6s10.3 27.6 25.7 27.6c15.3 0 25.7-12.1 25.7-27.6s-10.4-27.6-25.7-27.6M329.9 58.1h18.9v15.3c3.3-9.8 12.9-16.2 22.7-16.2 2.4 0 4.8.2 7.4.7v19.5c-3.3-1-6-1.6-9.5-1.6-10.9 0-20.7 9.1-20.7 26.4v42h-13.6c-3 0-5.4-2.4-5.4-5.4V58.1zM430.1 146c-25.5 0-45.1-19.8-45.1-44.8s19.6-44.8 45.1-44.8 45.1 19.8 45.1 44.8-19.6 44.8-45.1 44.8m0-17.6c15.2 0 25.8-11.9 25.8-27.2S445.2 74 430.1 74c-15.3 0-26 11.9-26 27.2s10.7 27.2 26 27.2M500 39.3c-6.9 0-12.7-5.7-12.7-12.7 0-6.9 5.9-12.6 12.7-12.6 7.1 0 12.6 5.7 12.6 12.6 0 7.1-5.5 12.7-12.6 12.7m-9.4 18.8h18.9v86.1H496c-3 0-5.4-2.4-5.4-5.4V58.1zM566.6 56.4c12.4 0 22.7 6.4 27.6 13.3V15.1h18.9v129.2h-13.6c-3 0-5.4-2.4-5.4-5.4v-6.2c-4.8 6.9-15.2 13.3-27.6 13.3-23.6 0-41.5-20.2-41.5-44.8.1-24.6 18-44.8 41.6-44.8m3.5 17.2c-15.3 0-25.7 12.1-25.7 27.6s10.3 27.6 25.7 27.6c15.3 0 25.7-12.1 25.7-27.6s-10.4-27.6-25.7-27.6"></path>
      <path class="logo-android__andy-icon" d="m822.2 111.7c-5.3 0-9.6-4.3-9.6-9.6s4.3-9.6 9.6-9.6 9.6 4.3 9.6 9.6-4.3 9.6-9.6 9.6m-105.7 0c-5.3 0-9.6-4.3-9.6-9.6s4.3-9.6 9.6-9.6 9.6 4.3 9.6 9.6-4.3 9.6-9.6 9.6m109.1-57.6l19.2-33.1c1.1-1.9 0.4-4.3-1.5-5.4s-4.3-0.4-5.4 1.5l-19.4 33.5c-14.8-6.8-31.4-10.6-49.1-10.6s-34.4 3.8-49.2 10.5l-19.4-33.5c-1.1-1.9-3.5-2.6-5.4-1.5s-2.6 3.5-1.5 5.4l19.1 33.1c-32.8 17.9-55.3 51.1-58.6 90.4h229.7c-3.2-39.2-25.6-72.4-58.5-90.3"></path>
    </symbol>
        <symbol fill="currentColor" viewBox="0 0 23 14" id="why-android-icon">
      <path fill-rule="evenodd" clip-rule="evenodd" d="M4.269.004a1.052 1.052 0 0 0-.805.502 1.048 1.048 0 0 0-.007 1.06l.482.833.672 1.159.687 1.186.012.022a11.423 11.423 0 0 0-3.263 3.07 11.37 11.37 0 0 0-1.962 4.746l-.022.138.002.001c-.025.166-.047.334-.065.5h22.685a11.436 11.436 0 0 0-1.22-4.033 11.499 11.499 0 0 0-4.11-4.434c0-.003.002-.006.004-.01l.688-1.185 1.152-1.992A1.041 1.041 0 1 0 17.396.52l-.481.832-.672 1.16c-.23.394-.458.79-.687 1.186l-.07.12a11.373 11.373 0 0 0-4.027-.777h-.117c-1.43 0-2.8.263-4.062.744-.035.013-.069.028-.104.042l-.075-.13-.687-1.187-.672-1.158L5.26.519A1.041 1.041 0 0 0 4.27.004Zm11.605 8.05c.454-.302 1.124-.092 1.497.468.372.56.306 1.26-.148 1.562-.454.302-1.123.093-1.496-.467-.372-.56-.306-1.26.147-1.563Zm-10.58.466c.373-.56 1.042-.77 1.496-.468.454.303.52 1.002.148 1.563-.372.56-1.043.77-1.497.467-.453-.302-.519-1.001-.146-1.562Z" fill="currentColor"></path>
    </symbol>
        <symbol viewBox="0 0 12 7" id="expand-more-black">
      <path d="M6 6.708.346 1.054 1.4 0 6 4.6 10.6 0l1.054 1.054L6 6.708Z"></path>
    </symbol>
        <symbol fill="currentColor" viewBox="0 0 23 23" id="ai-on-android-icon">
      <path d="M19.964 10.009a14.386 14.386 0 0 1-4.529-3.055A14.379 14.379 0 0 1 11.691.388a.512.512 0 0 0-.993 0 14.378 14.378 0 0 1-3.745 6.566 14.378 14.378 0 0 1-6.565 3.744.512.512 0 0 0 0 .993 14.386 14.386 0 0 1 6.566 3.745A14.368 14.368 0 0 1 10.698 22a.512.512 0 0 0 .993 0 14.386 14.386 0 0 1 3.745-6.566A14.38 14.38 0 0 1 22 11.691a.512.512 0 0 0 0-.993 13.45 13.45 0 0 1-2.037-.69Z" fill="currentColor"></path>
    </symbol>
        <symbol fill="currentColor" viewBox="-2 -3 23 20" id="auto-icon">
      <path d="M2.978 13.897v.993a.96.96 0 0 1-.285.707.96.96 0 0 1-.708.286H.993a.96.96 0 0 1-.708-.286A.96.96 0 0 1 0 14.89V6.949L2.085.993c.099-.298.277-.538.533-.72C2.875.091 3.16 0 3.474 0h10.92c.314 0 .6.091.856.273.256.182.434.422.533.72l2.085 5.956v7.94a.96.96 0 0 1-.285.708.96.96 0 0 1-.708.286h-.992a.96.96 0 0 1-.708-.286.96.96 0 0 1-.285-.707v-.993H2.978Zm-.199-8.934h12.31l-1.043-2.978H3.822L2.779 4.963Zm1.688 5.956c.414 0 .765-.145 1.055-.434.29-.29.434-.641.434-1.055 0-.413-.145-.765-.434-1.054a1.436 1.436 0 0 0-1.055-.435c-.414 0-.765.145-1.055.435-.29.29-.434.64-.434 1.054 0 .414.145.765.434 1.055.29.29.641.434 1.055.434Zm8.934 0c.414 0 .765-.145 1.055-.434.29-.29.434-.641.434-1.055 0-.413-.145-.765-.434-1.054A1.436 1.436 0 0 0 13.4 7.94c-.414 0-.765.145-1.055.435-.29.29-.434.64-.434 1.054 0 .414.145.765.434 1.055.29.29.641.434 1.055.434Zm-11.416.993h13.898V6.949H1.985v4.963Z" fill="currentColor"></path>
    </symbol>
        <symbol fill="currentColor" viewBox="0 0 22 12" id="xr-header-icon">
      <path d="M6.45 11.906c-1.092 0-2.026-.388-2.804-1.166C2.87 9.963 2.48 9.03 2.48 7.938V3.894c0-.843.265-1.583.794-2.22A3.33 3.33 0 0 1 5.308.496C6.251.314 7.185.186 8.111.112a35.445 35.445 0 0 1 5.618 0c.935.074 1.865.202 2.791.384a3.47 3.47 0 0 1 2.034 1.19c.53.63.794 1.365.794 2.208v4.044c0 1.09-.389 2.025-1.166 2.802-.777.778-1.712 1.166-2.803 1.166h-.992c-.215 0-.43-.012-.645-.037a2.284 2.284 0 0 1-.62-.161l-1.588-.546a1.596 1.596 0 0 0-.62-.124c-.215 0-.422.041-.62.124l-1.588.546a2.285 2.285 0 0 1-.62.161c-.215.025-.43.037-.645.037H6.45Zm0-1.984h.991a2.2 2.2 0 0 0 .335-.025c.108-.016.211-.041.31-.074.48-.15.947-.306 1.402-.472.455-.165.93-.248 1.426-.248.496 0 .976.079 1.439.236.463.157.926.318 1.389.484.099.033.202.058.31.074a2.2 2.2 0 0 0 .335.025h.992a1.91 1.91 0 0 0 1.401-.583 1.91 1.91 0 0 0 .583-1.401V3.894c0-.363-.115-.678-.347-.942a1.626 1.626 0 0 0-.868-.521 18.434 18.434 0 0 0-2.592-.36 39.705 39.705 0 0 0-2.642-.087c-.893 0-1.77.033-2.63.1-.86.066-1.727.181-2.604.347a1.469 1.469 0 0 0-.868.508 1.43 1.43 0 0 0-.347.955v4.044c0 .545.194 1.012.583 1.401a1.91 1.91 0 0 0 1.401.583ZM0 7.938v-3.97h1.488v3.97H0Zm20.34 0v-3.97h1.488v3.97H20.34Z" fill="currentColor"></path>
    </symbol>
        <symbol fill="currentColor" viewBox="-3 -4 22 20" id="a-16-icon">
      <path d="m2.821 2.804-1.88 1.36L0 2.738 3.375.302h1.293v11.486H2.821V2.804Zm7.861 9.253c-.783 0-1.483-.18-2.099-.538a3.883 3.883 0 0 1-1.427-1.46 3.916 3.916 0 0 1-.504-1.932c0-.66.129-1.281.386-1.863.258-.594.639-1.26 1.142-1.999L11.085 0l1.461 1.008-2.62 3.643.068.068c.302-.18.683-.269 1.142-.269.582 0 1.142.162 1.679.487.549.325.99.772 1.327 1.343.347.56.52 1.193.52 1.898 0 .705-.185 1.354-.554 1.948a3.927 3.927 0 0 1-1.461 1.41 3.88 3.88 0 0 1-1.965.52Zm-.017-1.73c.381 0 .74-.09 1.075-.268.336-.19.6-.448.79-.773.201-.325.302-.688.302-1.091s-.101-.767-.303-1.092a2.054 2.054 0 0 0-.806-.772 2.055 2.055 0 0 0-1.058-.286c-.38 0-.738.095-1.074.286-.336.179-.605.436-.806.772a2.028 2.028 0 0 0-.302 1.092c0 .403.095.766.285 1.091.202.325.47.582.806.773.336.179.7.268 1.091.268Z" fill="currentColor"></path>
    </symbol>
        <symbol fill="currentColor" viewBox="-1 -1 22 18" id="exp-latest-features">
      <path d="M15.867 8.925V6.942h3.966v1.983h-3.966Zm1.19 6.942-3.174-2.38 1.19-1.587 3.174 2.38-1.19 1.587Zm-1.984-11.9-1.19-1.587L17.057 0l1.19 1.587-3.174 2.38ZM2.975 14.875v-3.967h-.992a1.91 1.91 0 0 1-1.4-.582A1.91 1.91 0 0 1 0 8.925V6.942c0-.546.194-1.013.583-1.401a1.91 1.91 0 0 1 1.4-.583H5.95l4.958-2.975v11.9L5.95 10.908h-.992v3.967H2.975Zm5.95-4.512v-4.86l-2.43 1.439H1.983v1.983h4.512l2.43 1.438Zm2.975.892V4.611c.446.397.806.88 1.078 1.45.273.57.41 1.195.41 1.872 0 .678-.137 1.302-.41 1.872a4.529 4.529 0 0 1-1.078 1.45Z" fill="currentColor"></path>
    </symbol>
        <symbol fill="currentColor" viewBox="-2 -2 22 22" id="exp-find-hub">
      <path d="m16.462 17.85-6.248-6.248a6.044 6.044 0 0 1-3.768 1.29c-1.802 0-3.326-.624-4.574-1.872C.624 9.772 0 8.247 0 6.446 0 4.644.624 3.12 1.872 1.872 3.12.624 4.644 0 6.446 0c1.801 0 3.326.624 4.574 1.872 1.248 1.248 1.872 2.772 1.872 4.574a6.044 6.044 0 0 1-1.29 3.768l6.248 6.248-1.388 1.388ZM6.446 10.908c1.24 0 2.293-.433 3.16-1.301.869-.868 1.302-1.922 1.302-3.161 0-1.24-.433-2.293-1.301-3.161-.868-.868-1.922-1.302-3.161-1.302-1.24 0-2.293.434-3.161 1.302-.868.868-1.302 1.921-1.302 3.16 0 1.24.434 2.294 1.302 3.162.868.868 1.921 1.301 3.16 1.301Z" fill="currentColor"></path>
    </symbol>
        <symbol fill="currentColor" viewBox="0 0 24 24" id="exp-quick-share">
      <path d="M21.622 12.22a.92.92 0 0 1-.914-.822c-.444-4.315-4.072-7.568-8.436-7.568a8.46 8.46 0 0 0-7.897 5.348h5.582l-.452-.449a.81.81 0 0 1 0-1.15.82.82 0 0 1 1.156 0l1.948 1.94a.81.81 0 0 1 0 1.15l-1.947 1.938a.82.82 0 0 1-1.156 0 .81.81 0 0 1 0-1.151l.449-.446h-6.76c-.282 0-.59-.15-.763-.37a1.02 1.02 0 0 1-.181-.83C3.387 5.21 7.508 2 12.271 2c5.311 0 9.725 3.96 10.267 9.21a.917.917 0 0 1-.916 1.01Z"></path>
      <path d="M2.826 12.317a.921.921 0 0 1 1.009.818c.015.154.035.307.06.458.65 4.125 4.173 7.119 8.377 7.119a8.457 8.457 0 0 0 7.897-5.352h-5.586l.455.453a.81.81 0 0 1 0 1.15.82.82 0 0 1-1.156 0l-1.948-1.938a.812.812 0 0 1 0-1.15l1.948-1.94a.82.82 0 0 1 1.156 0 .81.81 0 0 1 0 1.15l-.445.444h6.757c.283 0 .59.149.764.37.175.221.247.555.18.828-1.134 4.603-5.256 7.816-10.022 7.816-5.115 0-9.402-3.645-10.195-8.665-.029-.185-.052-.37-.072-.557a.918.918 0 0 1 .821-1.004Z"></path>
    </symbol>
        <symbol fill="“currentColor”" viewBox="-2 -2 21 22" id="exp-circle-to-search">
      <path d="m15.54 17.92-5.927-5.927a5.69 5.69 0 0 1-3.547 1.213c-1.695 0-3.134-.583-4.316-1.75C.583 10.29 0 8.86 0 7.164c0-1.68.583-3.103 1.75-4.27C2.932 1.711 4.363 1.12 6.043 1.12c.498 0 .98.055 1.447.163.467.11.902.273 1.307.49L7.42 3.15a4.819 4.819 0 0 0-.677-.187 3.338 3.338 0 0 0-.7-.07c-1.182 0-2.185.42-3.01 1.26-.824.825-1.236 1.828-1.236 3.01 0 1.183.412 2.194 1.236 3.034.825.824 1.828 1.236 3.01 1.236 1.105 0 2.054-.35 2.847-1.05a4.222 4.222 0 0 0 1.4-2.66h1.773a5.238 5.238 0 0 1-.396 1.634 5.218 5.218 0 0 1-.794 1.376L16.8 16.66l-1.26 1.26Z" fill="currentColor"></path>
      <path d="M15.342 3.13a4.497 4.497 0 0 1-1.416-.956 4.497 4.497 0 0 1-1.17-2.053.16.16 0 0 0-.311 0 4.495 4.495 0 0 1-1.17 2.053 4.495 4.495 0 0 1-2.054 1.17.16.16 0 0 0 0 .311 4.498 4.498 0 0 1 2.053 1.17 4.493 4.493 0 0 1 1.17 2.054.16.16 0 0 0 .311 0 4.5 4.5 0 0 1 1.17-2.053 4.495 4.495 0 0 1 2.054-1.17.16.16 0 0 0 0-.311 4.201 4.201 0 0 1-.637-.216Z" fill="currentColor"></path>
    </symbol>
        <symbol fill="currentColor" viewBox="0 0 23 23" id="exp-gemini">
      <path d="M19.964 10.009a14.386 14.386 0 0 1-4.529-3.055A14.379 14.379 0 0 1 11.691.388a.512.512 0 0 0-.993 0 14.378 14.378 0 0 1-3.745 6.566 14.378 14.378 0 0 1-6.565 3.744.512.512 0 0 0 0 .993 14.386 14.386 0 0 1 6.566 3.745A14.368 14.368 0 0 1 10.698 22a.512.512 0 0 0 .993 0 14.386 14.386 0 0 1 3.745-6.566A14.38 14.38 0 0 1 22 11.691a.512.512 0 0 0 0-.993 13.45 13.45 0 0 1-2.037-.69Z" fill="currentColor"></path>
    </symbol>
        <symbol fill="currentColor" viewBox="0 0 16 21" id="exp-safety">
    <path d="M1.983 20.825a1.91 1.91 0 0 1-1.4-.583 1.91 1.91 0 0 1-.583-1.4V8.925c0-.545.194-1.012.583-1.4a1.91 1.91 0 0 1 1.4-.583h.992V4.958c0-1.371.483-2.54 1.45-3.508C5.392.483 6.562 0 7.933 0c1.372 0 2.542.483 3.508 1.45.967.967 1.45 2.137 1.45 3.508v1.984h.992a1.91 1.91 0 0 1 1.401.582c.388.389.583.856.583 1.401v9.917a1.91 1.91 0 0 1-.583 1.4 1.91 1.91 0 0 1-1.4.583h-11.9Zm0-1.983h11.9V8.925h-11.9v9.917Zm5.95-2.975a1.91 1.91 0 0 0 1.401-.583 1.91 1.91 0 0 0 .583-1.4 1.91 1.91 0 0 0-.583-1.401 1.91 1.91 0 0 0-1.4-.583 1.91 1.91 0 0 0-1.401.583 1.91 1.91 0 0 0-.583 1.4c0 .546.194 1.013.583 1.401a1.91 1.91 0 0 0 1.4.583ZM4.958 6.942h5.95V4.958c0-.826-.289-1.528-.867-2.107a2.869 2.869 0 0 0-2.108-.868c-.826 0-1.528.29-2.107.868a2.869 2.869 0 0 0-.868 2.107v1.984Z" fill="currentColor"></path>
    </symbol>
        <symbol fill="currentColor" viewBox="-2 -2 24 24" id="exp-google-messages">
      <path d="M0 19.833V1.983C0 1.438.194.971.583.583A1.91 1.91 0 0 1 1.983 0H17.85a1.91 1.91 0 0 1 1.4.583c.39.388.583.855.583 1.4v11.9a1.91 1.91 0 0 1-.582 1.401 1.91 1.91 0 0 1-1.401.583H3.967L0 19.833Zm3.124-5.95H17.85v-11.9H1.983V15l1.14-1.116Z" fill="currentColor"></path>
    </symbol>
        <symbol fill="currentColor" viewBox="1 1 22 22" id="exp-phones">
      <path d="M6.935 22.802a1.91 1.91 0 0 1-1.4-.583 1.91 1.91 0 0 1-.583-1.4V2.969c0-.546.194-1.013.583-1.401a1.91 1.91 0 0 1 1.4-.583h9.917a1.91 1.91 0 0 1 1.4.583c.39.388.584.855.584 1.4v3.075c.297.116.537.297.718.545.182.248.273.53.273.843v1.984c0 .314-.09.595-.273.842-.181.248-.421.43-.718.546v10.016a1.91 1.91 0 0 1-.583 1.4 1.91 1.91 0 0 1-1.4.583H6.934Zm0-1.983h9.917V2.969H6.935v17.85Zm4.959-14.875a.96.96 0 0 0 .706-.285.96.96 0 0 0 .286-.707.96.96 0 0 0-.286-.707.96.96 0 0 0-.706-.285.96.96 0 0 0-.707.285.96.96 0 0 0-.285.707.96.96 0 0 0 .285.707.96.96 0 0 0 .707.285Z" fill="currentColor"></path>
    </symbol>
        <symbol fill="currentColor" viewBox="0 0 26 32" id="exp-tablets">
    <path d="M2.833 31.167c-.779 0-1.446-.278-2-.833a2.728 2.728 0 0 1-.833-2v-25.5c0-.78.277-1.447.832-2.002A2.728 2.728 0 0 1 2.833 0h19.834c.779 0 1.446.277 2 .832.556.555.833 1.222.833 2.001v25.5c0 .78-.277 1.447-.832 2.001a2.729 2.729 0 0 1-2.001.833H2.833Zm0-7.084v4.25h19.834v-4.25H2.833Zm7.084 2.834h5.666V25.5H9.917v1.417ZM2.833 21.25h19.834V7.083H2.833V21.25Zm0-17h19.834V2.833H2.833V4.25Z" fill="currentColor"></path>
    </symbol>
        <symbol fill="currentColor" viewBox="0 0 29 23" id="exp-switch-from-iphone">
    <path d="m8.5 22.667-1.983-2.02L10.165 17H0v-2.833h10.165l-3.648-3.648L8.5 8.5l7.083 7.083L8.5 22.667Zm11.333-8.5L12.75 7.083 19.833 0l1.984 2.019-3.648 3.648h10.164V8.5H18.17l3.648 3.648-1.984 2.019Z" fill="currentColor"></path>
    </symbol>
        <symbol fill="currentColor" viewBox="0 0 24 24" id="exp-compare-devices">
      <path d="M14.716 20.32a1.79 1.79 0 0 1-1.315-.54 1.79 1.79 0 0 1-.54-1.314V6.103c0-.517.18-.955.54-1.315.36-.36.798-.54 1.315-.54h6.743c.517 0 .955.18 1.315.54.36.36.54.798.54 1.315v1.883c.217.108.39.263.518.464.128.202.192.423.192.665v1.35a1.268 1.268 0 0 1-.71 1.138v6.863c0 .517-.18.955-.54 1.315-.36.36-.798.54-1.315.54h-6.743Zm-.01-1.845h6.763V6.094h-6.763v12.383Zm2.13-.897h2.513c.26 0 .478-.09.654-.27a.91.91 0 0 0 .264-.66.884.884 0 0 0-.264-.652.89.89 0 0 0-.654-.263h-2.523c-.26 0-.478.09-.654.27a.91.91 0 0 0-.263.66c0 .259.09.476.27.652.18.175.4.263.657.263Z"></path>
      
      <path d="M1.917 20.32a1.79 1.79 0 0 1-1.315-.54 1.79 1.79 0 0 1-.54-1.314V6.103c0-.517.18-.955.54-1.315.36-.36.799-.54 1.316-.54H8.66c.517 0 .956.18 1.315.54.36.36.54.798.54 1.315v1.883c.217.108.39.263.518.464.128.202.192.423.192.665v1.35a1.267 1.267 0 0 1-.71 1.138v6.863c0 .517-.18.955-.54 1.315-.36.36-.798.54-1.315.54H1.918Zm-.01-1.845H8.67V6.094H1.908v12.383ZM5.29 8.351c.22 0 .406-.074.555-.224a.754.754 0 0 0 .224-.555.754.754 0 0 0-.224-.555.754.754 0 0 0-.555-.224.754.754 0 0 0-.555.224.754.754 0 0 0-.224.555c0 .221.074.406.224.555.15.15.334.224.555.224Z"></path>
    </symbol>
        <symbol fill="currentColor" viewBox="0 0 24 24" id="trackable-devices">
    <path d="M12 22c-1.95 0-3.604-.68-4.963-2.038C5.68 18.604 5 16.95 5 15c0-1.567.458-2.967 1.375-4.2S8.5 8.733 10 8.3V3c0-.283.096-.52.287-.712A.968.968 0 0 1 11 2h2c.283 0 .52.096.713.288.191.191.287.429.287.712v5.3a6.778 6.778 0 0 1 3.613 2.5C18.538 12.033 19 13.433 19 15c0 1.95-.683 3.604-2.05 4.962C15.583 21.322 13.933 22 12 22Zm0-2c1.383 0 2.563-.483 3.537-1.45C16.512 17.583 17 16.4 17 15c0-1.383-.488-2.563-1.463-3.537C14.563 10.488 13.383 10 12 10c-1.4 0-2.583.488-3.55 1.463C7.483 12.438 7 13.617 7 15c0 1.4.483 2.583 1.45 3.55C9.417 19.517 10.6 20 12 20Z" fill="currentColor"></path>
    </symbol>
        <symbol fill="currentColor" viewBox="0 0 20 21" id="fast-pair">
    <path d="M0 4.26c.018-.039.04-.076.052-.116.261-.829 1.205-1.075 1.825-.463.81.797 1.603 1.61 2.405 2.415l6.406 6.433c.403.404.49.884.25 1.33-.357.656-1.19.768-1.736.222-1.768-1.77-3.534-3.544-5.3-5.318C2.783 7.637 1.667 6.506.54 5.386c-.252-.249-.462-.509-.54-.86V4.26ZM9.985 5.582c.343-.008.608.147.844.384 2.389 2.382 4.78 4.76 7.17 7.142.547.544 1.095 1.09 1.64 1.636.466.468.482 1.124.043 1.565-.43.43-1.092.423-1.548-.03-2.959-2.943-5.915-5.887-8.87-8.83-.348-.348-.447-.757-.262-1.218.16-.398.55-.649.983-.649ZM14.47.001c.452.011.776.229.968.63.188.395.098.872-.232 1.203-.621.622-1.252 1.234-1.88 1.85-.151.15-.3.303-.457.447a1.065 1.065 0 0 1-1.49-.036 1.051 1.051 0 0 1-.011-1.487c.776-.78 1.565-1.548 2.352-2.319a.977.977 0 0 1 .75-.288ZM4.411 19.035c0-.397.102-.645.307-.847.776-.766 1.548-1.535 2.333-2.292a1.058 1.058 0 0 1 1.506.014c.414.421.427 1.079.002 1.506-.776.779-1.56 1.55-2.353 2.31-.331.317-.74.376-1.16.19-.42-.187-.624-.53-.635-.882Z" fill="currentColor"></path>
    </symbol>
        <symbol viewBox="0 0 20 20" id="external-no-color">
      <path fill="currentColor" d="m5.245 14.704-.87-.87 8.2-8.209H5.12v-1.25h9.584v9.583h-1.25V6.503l-8.209 8.2Z"></path>
    </symbol>
        <symbol fill="none" viewBox="0 0 56 56" id="quick-share-icon" xmlns="http://www.w3.org/2000/svg">
      <rect width="56" height="56" fill="#fff" rx="28"></rect>
      <path fill="#4285F4" d="M43.93 27.913a1.567 1.567 0 0 1-1.557-1.4C41.615 19.163 35.435 13.62 28 13.62c-6.023 0-11.314 3.666-13.452 9.112h9.509l-.77-.768a1.384 1.384 0 0 1 0-1.96 1.394 1.394 0 0 1 1.968 0l3.32 3.302c.542.543.542 1.42 0 1.96l-3.317 3.305a1.4 1.4 0 0 1-1.968 0 1.384 1.384 0 0 1 0-1.96l.764-.762H12.536a1.751 1.751 0 0 1-1.301-.63 1.739 1.739 0 0 1-.31-1.414C12.864 15.972 19.884 10.5 28 10.5c9.047 0 16.567 6.746 17.491 15.692a1.56 1.56 0 0 1-1.4 1.709.984.984 0 0 1-.16.012Z"></path>
      <path fill="#4285F4" d="M11.909 28.079a1.565 1.565 0 0 1 1.718 1.394c.026.262.06.522.102.779 1.108 7.029 7.113 12.127 14.274 12.127 6.026 0 11.316-3.666 13.454-9.117h-9.52l.776.773c.543.542.543 1.42 0 1.96a1.4 1.4 0 0 1-1.969 0l-3.319-3.305a1.384 1.384 0 0 1 0-1.96l3.32-3.302a1.394 1.394 0 0 1 1.968 0c.543.54.543 1.418 0 1.96l-.758.756h11.512c.481 0 1.003.256 1.3.63.298.376.424.945.31 1.411C43.143 40.025 36.12 45.5 28 45.5c-8.715 0-16.018-6.21-17.369-14.764-.05-.315-.09-.63-.122-.948a1.561 1.561 0 0 1 1.4-1.71Z"></path>
    </symbol>
        <symbol viewBox="0 0 24 24" id="download-icon">
      <mask style="mask-type:alpha" maskUnits="userSpaceOnUse" x="0" y="0" width="24" height="24"><path d="M0 0h24v24H0z"></path></mask><g><path d="M6.308 19.5c-.505 0-.933-.175-1.283-.525a1.745 1.745 0 0 1-.525-1.283V15H6v2.692c0 .077.032.148.096.212a.294.294 0 0 0 .212.096h11.384a.294.294 0 0 0 .212-.096.294.294 0 0 0 .096-.212V15h1.5v2.692c0 .505-.175.933-.525 1.283-.35.35-.778.525-1.283.525H6.308ZM12 15.615l-4.27-4.269 1.055-1.084 2.465 2.465v-8.4h1.5v8.4l2.465-2.465 1.054 1.084L12 15.616Z"></path></g>
    </symbol>
         <symbol id="ico-arrow-round" viewBox="0 0 11 7">
      <path d="M9.576 1.333L5.333 5.576 1.091 1.333" stroke="currentColor" stroke-width="2" fill="none" stroke-linecap="round" stroke-linejoin="round"></path>
    </symbol>
        <symbol id="ico-cta-external" viewBox="0 0 48 48" xmlns="http://www.w3.org/2000/svg"><path class="ast0" d="M30.9 18.5l-1.4-1.4 9.6-9.6h-8.6v-2h12v12h-2V8.9l-9.6 9.6zm-24 24l-1.4-1.4 9.6-9.6H6.5v-2h12v12h-2v-8.6l-9.6 9.6z" fill="currentColor"></path></symbol>
  </defs>
</svg>