<svg xmlns:xlink="http://www.w3.org/1999/xlink" xmlns="http://www.w3.org/2000/svg" role="presentation" class="icon--svg expansion-panel__item-icon" aria-hidden="true" width="24"  height="24" ><defs><symbol fill="currentColor" viewBox="0 0 24 24" id="exp-quick-share">
      <path d="M21.622 12.22a.92.92 0 0 1-.914-.822c-.444-4.315-4.072-7.568-8.436-7.568a8.46 8.46 0 0 0-7.897 5.348h5.582l-.452-.449a.81.81 0 0 1 0-1.15.82.82 0 0 1 1.156 0l1.948 1.94a.81.81 0 0 1 0 1.15l-1.947 1.938a.82.82 0 0 1-1.156 0 .81.81 0 0 1 0-1.151l.449-.446h-6.76c-.282 0-.59-.15-.763-.37a1.02 1.02 0 0 1-.181-.83C3.387 5.21 7.508 2 12.271 2c5.311 0 9.725 3.96 10.267 9.21a.917.917 0 0 1-.916 1.01Z"></path>
      <path d="M2.826 12.317a.921.921 0 0 1 1.009.818c.015.154.035.307.06.458.65 4.125 4.173 7.119 8.377 7.119a8.457 8.457 0 0 0 7.897-5.352h-5.586l.455.453a.81.81 0 0 1 0 1.15.82.82 0 0 1-1.156 0l-1.948-1.938a.812.812 0 0 1 0-1.15l1.948-1.94a.82.82 0 0 1 1.156 0 .81.81 0 0 1 0 1.15l-.445.444h6.757c.283 0 .59.149.764.37.175.221.247.555.18.828-1.134 4.603-5.256 7.816-10.022 7.816-5.115 0-9.402-3.645-10.195-8.665-.029-.185-.052-.37-.072-.557a.918.918 0 0 1 .821-1.004Z"></path>
    </symbol></defs>
                          <use href="#exp-quick-share"></use>
                        </svg>