<svg xmlns:xlink="http://www.w3.org/1999/xlink" xmlns="http://www.w3.org/2000/svg" role="presentation" class="icon--svg expansion-panel__item-icon" aria-hidden="true" width="100"  height="100" ><defs><symbol fill="currentColor" viewBox="-2 -3 23 20" id="auto-icon">
      <path d="M2.978 13.897v.993a.96.96 0 0 1-.285.707.96.96 0 0 1-.708.286H.993a.96.96 0 0 1-.708-.286A.96.96 0 0 1 0 14.89V6.949L2.085.993c.099-.298.277-.538.533-.72C2.875.091 3.16 0 3.474 0h10.92c.314 0 .6.091.856.273.256.182.434.422.533.72l2.085 5.956v7.94a.96.96 0 0 1-.285.708.96.96 0 0 1-.708.286h-.992a.96.96 0 0 1-.708-.286.96.96 0 0 1-.285-.707v-.993H2.978Zm-.199-8.934h12.31l-1.043-2.978H3.822L2.779 4.963Zm1.688 5.956c.414 0 .765-.145 1.055-.434.29-.29.434-.641.434-1.055 0-.413-.145-.765-.434-1.054a1.436 1.436 0 0 0-1.055-.435c-.414 0-.765.145-1.055.435-.29.29-.434.64-.434 1.054 0 .414.145.765.434 1.055.29.29.641.434 1.055.434Zm8.934 0c.414 0 .765-.145 1.055-.434.29-.29.434-.641.434-1.055 0-.413-.145-.765-.434-1.054A1.436 1.436 0 0 0 13.4 7.94c-.414 0-.765.145-1.055.435-.29.29-.434.64-.434 1.054 0 .414.145.765.434 1.055.29.29.641.434 1.055.434Zm-11.416.993h13.898V6.949H1.985v4.963Z" fill="currentColor"></path>
    </symbol></defs>
                        <use href="#auto-icon"></use>
                      </svg>