<svg xmlns:xlink="http://www.w3.org/1999/xlink" xmlns="http://www.w3.org/2000/svg" role="presentation" class="icon--svg expansion-panel__item-icon is-xl" aria-hidden="true" width="24"  height="24" ><defs><symbol fill="currentColor" viewBox="0 0 24 24" id="exp-compare-devices">
      <path d="M14.716 20.32a1.79 1.79 0 0 1-1.315-.54 1.79 1.79 0 0 1-.54-1.314V6.103c0-.517.18-.955.54-1.315.36-.36.798-.54 1.315-.54h6.743c.517 0 .955.18 1.315.54.36.36.54.798.54 1.315v1.883c.217.108.39.263.518.464.128.202.192.423.192.665v1.35a1.268 1.268 0 0 1-.71 1.138v6.863c0 .517-.18.955-.54 1.315-.36.36-.798.54-1.315.54h-6.743Zm-.01-1.845h6.763V6.094h-6.763v12.383Zm2.13-.897h2.513c.26 0 .478-.09.654-.27a.91.91 0 0 0 .264-.66.884.884 0 0 0-.264-.652.89.89 0 0 0-.654-.263h-2.523c-.26 0-.478.09-.654.27a.91.91 0 0 0-.263.66c0 .259.09.476.27.652.18.175.4.263.657.263Z"></path>
      
      <path d="M1.917 20.32a1.79 1.79 0 0 1-1.315-.54 1.79 1.79 0 0 1-.54-1.314V6.103c0-.517.18-.955.54-1.315.36-.36.799-.54 1.316-.54H8.66c.517 0 .956.18 1.315.54.36.36.54.798.54 1.315v1.883c.217.108.39.263.518.464.128.202.192.423.192.665v1.35a1.267 1.267 0 0 1-.71 1.138v6.863c0 .517-.18.955-.54 1.315-.36.36-.798.54-1.315.54H1.918Zm-.01-1.845H8.67V6.094H1.908v12.383ZM5.29 8.351c.22 0 .406-.074.555-.224a.754.754 0 0 0 .224-.555.754.754 0 0 0-.224-.555.754.754 0 0 0-.555-.224.754.754 0 0 0-.555.224.754.754 0 0 0-.224.555c0 .221.074.406.224.555.15.15.334.224.555.224Z"></path>
    </symbol></defs>
                        <use href="#exp-compare-devices"></use>
                      </svg>