<svg xmlns:xlink="http://www.w3.org/1999/xlink" xmlns="http://www.w3.org/2000/svg" role="presentation" class="icon--svg expansion-panel__item-icon" aria-hidden="true" width="100"  height="100" ><defs><symbol fill="“currentColor”" viewBox="-2 -2 21 22" id="exp-circle-to-search">
      <path d="m15.54 17.92-5.927-5.927a5.69 5.69 0 0 1-3.547 1.213c-1.695 0-3.134-.583-4.316-1.75C.583 10.29 0 8.86 0 7.164c0-1.68.583-3.103 1.75-4.27C2.932 1.711 4.363 1.12 6.043 1.12c.498 0 .98.055 1.447.163.467.11.902.273 1.307.49L7.42 3.15a4.819 4.819 0 0 0-.677-.187 3.338 3.338 0 0 0-.7-.07c-1.182 0-2.185.42-3.01 1.26-.824.825-1.236 1.828-1.236 3.01 0 1.183.412 2.194 1.236 3.034.825.824 1.828 1.236 3.01 1.236 1.105 0 2.054-.35 2.847-1.05a4.222 4.222 0 0 0 1.4-2.66h1.773a5.238 5.238 0 0 1-.396 1.634 5.218 5.218 0 0 1-.794 1.376L16.8 16.66l-1.26 1.26Z" fill="currentColor"></path>
      <path d="M15.342 3.13a4.497 4.497 0 0 1-1.416-.956 4.497 4.497 0 0 1-1.17-2.053.16.16 0 0 0-.311 0 4.495 4.495 0 0 1-1.17 2.053 4.495 4.495 0 0 1-2.054 1.17.16.16 0 0 0 0 .311 4.498 4.498 0 0 1 2.053 1.17 4.493 4.493 0 0 1 1.17 2.054.16.16 0 0 0 .311 0 4.5 4.5 0 0 1 1.17-2.053 4.495 4.495 0 0 1 2.054-1.17.16.16 0 0 0 0-.311 4.201 4.201 0 0 1-.637-.216Z" fill="currentColor"></path>
    </symbol></defs>
                        <use href="#exp-circle-to-search"></use>
                      </svg>