<svg xmlns:xlink="http://www.w3.org/1999/xlink" xmlns="http://www.w3.org/2000/svg" role="presentation" class="icon--svg expansion-panel__item-icon is-xl" aria-hidden="true" width="22"  height="22" ><defs><symbol fill="currentColor" viewBox="1 1 22 22" id="exp-phones">
      <path d="M6.935 22.802a1.91 1.91 0 0 1-1.4-.583 1.91 1.91 0 0 1-.583-1.4V2.969c0-.546.194-1.013.583-1.401a1.91 1.91 0 0 1 1.4-.583h9.917a1.91 1.91 0 0 1 1.4.583c.39.388.584.855.584 1.4v3.075c.297.116.537.297.718.545.182.248.273.53.273.843v1.984c0 .314-.09.595-.273.842-.181.248-.421.43-.718.546v10.016a1.91 1.91 0 0 1-.583 1.4 1.91 1.91 0 0 1-1.4.583H6.934Zm0-1.983h9.917V2.969H6.935v17.85Zm4.959-14.875a.96.96 0 0 0 .706-.285.96.96 0 0 0 .286-.707.96.96 0 0 0-.286-.707.96.96 0 0 0-.706-.285.96.96 0 0 0-.707.285.96.96 0 0 0-.285.707.96.96 0 0 0 .285.707.96.96 0 0 0 .707.285Z" fill="currentColor"></path>
    </symbol></defs>
                        <use href="#exp-phones"></use>
                      </svg>