<svg xmlns:xlink="http://www.w3.org/1999/xlink" xmlns="http://www.w3.org/2000/svg" role="presentation" class="icon--svg expansion-panel__item-icon" aria-hidden="true" width="23"  height="14" ><defs><symbol fill="currentColor" viewBox="0 0 23 14" id="why-android-icon">
      <path fill-rule="evenodd" clip-rule="evenodd" d="M4.269.004a1.052 1.052 0 0 0-.805.502 1.048 1.048 0 0 0-.007 1.06l.482.833.672 1.159.687 1.186.012.022a11.423 11.423 0 0 0-3.263 3.07 11.37 11.37 0 0 0-1.962 4.746l-.022.138.002.001c-.025.166-.047.334-.065.5h22.685a11.436 11.436 0 0 0-1.22-4.033 11.499 11.499 0 0 0-4.11-4.434c0-.003.002-.006.004-.01l.688-1.185 1.152-1.992A1.041 1.041 0 1 0 17.396.52l-.481.832-.672 1.16c-.23.394-.458.79-.687 1.186l-.07.12a11.373 11.373 0 0 0-4.027-.777h-.117c-1.43 0-2.8.263-4.062.744-.035.013-.069.028-.104.042l-.075-.13-.687-1.187-.672-1.158L5.26.519A1.041 1.041 0 0 0 4.27.004Zm11.605 8.05c.454-.302 1.124-.092 1.497.468.372.56.306 1.26-.148 1.562-.454.302-1.123.093-1.496-.467-.372-.56-.306-1.26.147-1.563Zm-10.58.466c.373-.56 1.042-.77 1.496-.468.454.303.52 1.002.148 1.563-.372.56-1.043.77-1.497.467-.453-.302-.519-1.001-.146-1.562Z" fill="currentColor"></path>
    </symbol></defs>
                        <use href="#why-android-icon"></use>
                      </svg>