<svg xmlns:xlink="http://www.w3.org/1999/xlink" xmlns="http://www.w3.org/2000/svg" role="presentation" class="icon--svg expansion-panel__item-icon" aria-hidden="true" width="23"  height="23" ><defs><symbol fill="currentColor" viewBox="0 0 23 23" id="ai-on-android-icon">
      <path d="M19.964 10.009a14.386 14.386 0 0 1-4.529-3.055A14.379 14.379 0 0 1 11.691.388a.512.512 0 0 0-.993 0 14.378 14.378 0 0 1-3.745 6.566 14.378 14.378 0 0 1-6.565 3.744.512.512 0 0 0 0 .993 14.386 14.386 0 0 1 6.566 3.745A14.368 14.368 0 0 1 10.698 22a.512.512 0 0 0 .993 0 14.386 14.386 0 0 1 3.745-6.566A14.38 14.38 0 0 1 22 11.691a.512.512 0 0 0 0-.993 13.45 13.45 0 0 1-2.037-.69Z" fill="currentColor"></path>
    </symbol></defs>
                          <use href="#ai-on-android-icon"></use>
                        </svg>