<svg xmlns:xlink="http://www.w3.org/1999/xlink" xmlns="http://www.w3.org/2000/svg" role="presentation" class="icon--svg expansion-panel__item-icon" aria-hidden="true" width="16"  height="21" ><defs><symbol fill="currentColor" viewBox="0 0 16 21" id="exp-safety">
    <path d="M1.983 20.825a1.91 1.91 0 0 1-1.4-.583 1.91 1.91 0 0 1-.583-1.4V8.925c0-.545.194-1.012.583-1.4a1.91 1.91 0 0 1 1.4-.583h.992V4.958c0-1.371.483-2.54 1.45-3.508C5.392.483 6.562 0 7.933 0c1.372 0 2.542.483 3.508 1.45.967.967 1.45 2.137 1.45 3.508v1.984h.992a1.91 1.91 0 0 1 1.401.582c.388.389.583.856.583 1.401v9.917a1.91 1.91 0 0 1-.583 1.4 1.91 1.91 0 0 1-1.4.583h-11.9Zm0-1.983h11.9V8.925h-11.9v9.917Zm5.95-2.975a1.91 1.91 0 0 0 1.401-.583 1.91 1.91 0 0 0 .583-1.4 1.91 1.91 0 0 0-.583-1.401 1.91 1.91 0 0 0-1.4-.583 1.91 1.91 0 0 0-1.401.583 1.91 1.91 0 0 0-.583 1.4c0 .546.194 1.013.583 1.401a1.91 1.91 0 0 0 1.4.583ZM4.958 6.942h5.95V4.958c0-.826-.289-1.528-.867-2.107a2.869 2.869 0 0 0-2.108-.868c-.826 0-1.528.29-2.107.868a2.869 2.869 0 0 0-.868 2.107v1.984Z" fill="currentColor"></path>
    </symbol></defs>
                        <use href="#exp-safety"></use>
                      </svg>