<svg viewBox="0 0 100 100" xmlns:xlink="http://www.w3.org/1999/xlink" xmlns="http://www.w3.org/2000/svg" role="presentation" class="icon--svg help-icon" aria-hidden="true" width="100"  height="100" >
        <mask id="aa" width="24" height="25" x="0" y="0" maskUnits="userSpaceOnUse" style="mask-type: alpha" fill="#6C727F">
          <path fill="#6C727F" d="M0 .973h24v24H0z"></path>
        </mask>
        <g mask="url(#aa)" fill="#6C727F">
          <path fill="#6C727F" d="M11.989 18.588a.983.983 0 0 0 .723-.295.986.986 0 0 0 .296-.724.983.983 0 0 0-.296-.724.986.986 0 0 0-.724-.295.983.983 0 0 0-.723.296.986.986 0 0 0-.296.724c0 .285.099.527.296.723a.986.986 0 0 0 .724.295Zm-.708-3.58h1.407c.013-.492.085-.886.217-1.18.131-.294.45-.684.957-1.17.44-.44.776-.846 1.01-1.219.234-.372.351-.812.351-1.319 0-.86-.31-1.533-.928-2.017-.618-.484-1.35-.726-2.195-.726-.835 0-1.525.223-2.072.668-.547.446-.937.97-1.17 1.574l1.284.516a2.89 2.89 0 0 1 .625-.97c.295-.315.733-.473 1.314-.473.59 0 1.028.162 1.31.486.283.324.425.68.425 1.068 0 .34-.097.65-.291.933-.194.282-.44.554-.74.817-.657.592-1.072 1.065-1.245 1.418-.173.352-.26.883-.26 1.594Zm.72 7.465a9.254 9.254 0 0 1-3.704-.748 9.595 9.595 0 0 1-3.018-2.03 9.594 9.594 0 0 1-2.03-3.016 9.246 9.246 0 0 1-.749-3.704c0-1.314.25-2.55.748-3.705a9.596 9.596 0 0 1 2.03-3.017A9.595 9.595 0 0 1 8.294 4.22a9.246 9.246 0 0 1 3.704-.748c1.314 0 2.55.25 3.706.748a9.596 9.596 0 0 1 3.017 2.03 9.594 9.594 0 0 1 2.03 3.016 9.247 9.247 0 0 1 .749 3.704 9.27 9.27 0 0 1-.748 3.706 9.595 9.595 0 0 1-2.03 3.017 9.595 9.595 0 0 1-3.016 2.03 9.247 9.247 0 0 1-3.704.75Zm-.001-1.5c2.233 0 4.125-.775 5.675-2.325 1.55-1.55 2.325-3.441 2.325-5.675 0-2.233-.775-4.125-2.325-5.675-1.55-1.55-3.442-2.325-5.675-2.325-2.233 0-4.125.775-5.675 2.325C4.775 8.848 4 10.74 4 12.973c0 2.233.775 4.125 2.325 5.675 1.55 1.55 3.442 2.325 5.675 2.325Z"></path>
        </g>
      </svg>