<svg xmlns:xlink="http://www.w3.org/1999/xlink" xmlns="http://www.w3.org/2000/svg" role="presentation" class="icon--svg expansion-panel__item-icon" aria-hidden="true" width="100"  height="100" ><defs><symbol fill="currentColor" viewBox="-2 -2 22 22" id="exp-find-hub">
      <path d="m16.462 17.85-6.248-6.248a6.044 6.044 0 0 1-3.768 1.29c-1.802 0-3.326-.624-4.574-1.872C.624 9.772 0 8.247 0 6.446 0 4.644.624 3.12 1.872 1.872 3.12.624 4.644 0 6.446 0c1.801 0 3.326.624 4.574 1.872 1.248 1.248 1.872 2.772 1.872 4.574a6.044 6.044 0 0 1-1.29 3.768l6.248 6.248-1.388 1.388ZM6.446 10.908c1.24 0 2.293-.433 3.16-1.301.869-.868 1.302-1.922 1.302-3.161 0-1.24-.433-2.293-1.301-3.161-.868-.868-1.922-1.302-3.161-1.302-1.24 0-2.293.434-3.161 1.302-.868.868-1.302 1.921-1.302 3.16 0 1.24.434 2.294 1.302 3.162.868.868 1.921 1.301 3.16 1.301Z" fill="currentColor"></path>
    </symbol></defs>
                        <use href="#exp-find-hub"></use>
                      </svg>