<svg xmlns:xlink="http://www.w3.org/1999/xlink" xmlns="http://www.w3.org/2000/svg" role="presentation" class="icon--svg expansion-panel__item-icon" aria-hidden="true" width="100"  height="100" ><defs><symbol fill="currentColor" viewBox="-3 -4 22 20" id="a-16-icon">
      <path d="m2.821 2.804-1.88 1.36L0 2.738 3.375.302h1.293v11.486H2.821V2.804Zm7.861 9.253c-.783 0-1.483-.18-2.099-.538a3.883 3.883 0 0 1-1.427-1.46 3.916 3.916 0 0 1-.504-1.932c0-.66.129-1.281.386-1.863.258-.594.639-1.26 1.142-1.999L11.085 0l1.461 1.008-2.62 3.643.068.068c.302-.18.683-.269 1.142-.269.582 0 1.142.162 1.679.487.549.325.99.772 1.327 1.343.347.56.52 1.193.52 1.898 0 .705-.185 1.354-.554 1.948a3.927 3.927 0 0 1-1.461 1.41 3.88 3.88 0 0 1-1.965.52Zm-.017-1.73c.381 0 .74-.09 1.075-.268.336-.19.6-.448.79-.773.201-.325.302-.688.302-1.091s-.101-.767-.303-1.092a2.054 2.054 0 0 0-.806-.772 2.055 2.055 0 0 0-1.058-.286c-.38 0-.738.095-1.074.286-.336.179-.605.436-.806.772a2.028 2.028 0 0 0-.302 1.092c0 .403.095.766.285 1.091.202.325.47.582.806.773.336.179.7.268 1.091.268Z" fill="currentColor"></path>
    </symbol></defs>
                        <use href="#a-16-icon"></use>
                      </svg>