<svg xmlns:xlink="http://www.w3.org/1999/xlink" xmlns="http://www.w3.org/2000/svg" role="presentation" class="icon--svg expansion-panel__item-icon" aria-hidden="true" width="20"  height="21" ><defs><symbol fill="currentColor" viewBox="0 0 20 21" id="fast-pair">
    <path d="M0 4.26c.018-.039.04-.076.052-.116.261-.829 1.205-1.075 1.825-.463.81.797 1.603 1.61 2.405 2.415l6.406 6.433c.403.404.49.884.25 1.33-.357.656-1.19.768-1.736.222-1.768-1.77-3.534-3.544-5.3-5.318C2.783 7.637 1.667 6.506.54 5.386c-.252-.249-.462-.509-.54-.86V4.26ZM9.985 5.582c.343-.008.608.147.844.384 2.389 2.382 4.78 4.76 7.17 7.142.547.544 1.095 1.09 1.64 1.636.466.468.482 1.124.043 1.565-.43.43-1.092.423-1.548-.03-2.959-2.943-5.915-5.887-8.87-8.83-.348-.348-.447-.757-.262-1.218.16-.398.55-.649.983-.649ZM14.47.001c.452.011.776.229.968.63.188.395.098.872-.232 1.203-.621.622-1.252 1.234-1.88 1.85-.151.15-.3.303-.457.447a1.065 1.065 0 0 1-1.49-.036 1.051 1.051 0 0 1-.011-1.487c.776-.78 1.565-1.548 2.352-2.319a.977.977 0 0 1 .75-.288ZM4.411 19.035c0-.397.102-.645.307-.847.776-.766 1.548-1.535 2.333-2.292a1.058 1.058 0 0 1 1.506.014c.414.421.427 1.079.002 1.506-.776.779-1.56 1.55-2.353 2.31-.331.317-.74.376-1.16.19-.42-.187-.624-.53-.635-.882Z" fill="currentColor"></path>
    </symbol></defs>
                        <use href="#fast-pair"></use>
                      </svg>