<svg xmlns:xlink="http://www.w3.org/1999/xlink" xmlns="http://www.w3.org/2000/svg" role="presentation" class="icon--svg expansion-panel__item-icon" aria-hidden="true" width="22"  height="12" ><defs><symbol fill="currentColor" viewBox="0 0 22 12" id="xr-header-icon">
      <path d="M6.45 11.906c-1.092 0-2.026-.388-2.804-1.166C2.87 9.963 2.48 9.03 2.48 7.938V3.894c0-.843.265-1.583.794-2.22A3.33 3.33 0 0 1 5.308.496C6.251.314 7.185.186 8.111.112a35.445 35.445 0 0 1 5.618 0c.935.074 1.865.202 2.791.384a3.47 3.47 0 0 1 2.034 1.19c.53.63.794 1.365.794 2.208v4.044c0 1.09-.389 2.025-1.166 2.802-.777.778-1.712 1.166-2.803 1.166h-.992c-.215 0-.43-.012-.645-.037a2.284 2.284 0 0 1-.62-.161l-1.588-.546a1.596 1.596 0 0 0-.62-.124c-.215 0-.422.041-.62.124l-1.588.546a2.285 2.285 0 0 1-.62.161c-.215.025-.43.037-.645.037H6.45Zm0-1.984h.991a2.2 2.2 0 0 0 .335-.025c.108-.016.211-.041.31-.074.48-.15.947-.306 1.402-.472.455-.165.93-.248 1.426-.248.496 0 .976.079 1.439.236.463.157.926.318 1.389.484.099.033.202.058.31.074a2.2 2.2 0 0 0 .335.025h.992a1.91 1.91 0 0 0 1.401-.583 1.91 1.91 0 0 0 .583-1.401V3.894c0-.363-.115-.678-.347-.942a1.626 1.626 0 0 0-.868-.521 18.434 18.434 0 0 0-2.592-.36 39.705 39.705 0 0 0-2.642-.087c-.893 0-1.77.033-2.63.1-.86.066-1.727.181-2.604.347a1.469 1.469 0 0 0-.868.508 1.43 1.43 0 0 0-.347.955v4.044c0 .545.194 1.012.583 1.401a1.91 1.91 0 0 0 1.401.583ZM0 7.938v-3.97h1.488v3.97H0Zm20.34 0v-3.97h1.488v3.97H20.34Z" fill="currentColor"></path>
    </symbol></defs>
                          <use href="#xr-header-icon"></use>
                        </svg>